<?xml version="1.0" standalone="no"?>
<!DOCTYPE svg PUBLIC "-//W3C//DTD SVG 20010904//EN"
 "http://www.w3.org/TR/2001/REC-SVG-20010904/DTD/svg10.dtd">
<svg version="1.0" xmlns="http://www.w3.org/2000/svg"
 width="250.000000pt" height="250.000000pt" viewBox="0 0 250.000000 250.000000"
 preserveAspectRatio="xMidYMid meet">

<g transform="translate(0.000000,250.000000) scale(0.100000,-0.100000)"
fill="#000000" stroke="none">
<path d="M1035 2444 c-174 -31 -352 -107 -499 -212 -104 -75 -248 -229 -314
-335 -415 -665 -103 -1538 638 -1788 263 -90 571 -83 825 18 283 112 510 320
647 593 226 449 138 1008 -216 1373 -177 183 -413 309 -664 352 -105 19 -311
18 -417 -1z m235 -165 c-6 -9 -24 -28 -40 -41 -31 -24 -31 -24 -15 -61 15 -35
14 -39 -6 -67 -12 -16 -25 -27 -29 -25 -4 3 -10 27 -14 55 -5 34 -11 50 -21
50 -13 0 -13 3 -3 19 10 17 8 26 -20 60 -18 22 -32 42 -32 45 0 15 23 3 55
-30 41 -41 56 -36 77 22 l12 34 23 -21 c17 -17 20 -26 13 -40z m117 4 c-4 -32
-9 -81 -13 -110 -3 -29 -3 -60 0 -70 7 -17 8 -17 17 0 6 9 16 17 23 17 23 0
48 38 57 87 9 48 35 93 57 101 7 2 6 -7 -3 -26 -8 -16 -19 -57 -23 -91 -8 -53
-15 -68 -45 -98 -34 -35 -37 -36 -67 -23 -52 22 -61 45 -57 150 3 76 7 95 22
106 32 24 38 16 32 -43z m-403 17 c14 -5 33 -21 42 -35 16 -24 16 -29 1 -61
-9 -19 -22 -34 -29 -34 -19 -1 34 -29 54 -30 9 0 19 -4 22 -9 7 -11 -13 -71
-24 -71 -16 0 -71 52 -86 81 -18 37 -37 39 -24 3 12 -30 13 -94 2 -111 -5 -8
-14 -7 -32 7 -21 16 -24 25 -21 69 2 48 -13 121 -26 121 -3 0 -12 -8 -20 -17
-14 -17 -14 -17 -7 2 4 11 7 30 7 42 -1 15 4 20 13 16 8 -3 22 1 32 9 31 28
58 33 96 18z m958 -215 c4 -33 1 -37 -40 -61 -58 -34 -113 -124 -64 -107 12 4
9 -1 -8 -18 -19 -18 -27 -21 -33 -12 -4 7 -16 13 -26 13 -27 0 -71 46 -71 74
0 28 3 31 48 41 32 7 33 6 26 -22 -11 -41 -10 -65 1 -70 6 -2 17 18 24 44 9
36 26 61 66 101 30 28 59 52 64 52 5 0 11 -16 13 -35z m-1387 -45 c0 -41 5
-55 27 -77 23 -22 36 -27 78 -26 49 1 50 0 50 -30 0 -30 0 -30 -48 -24 l-47 6
0 -39 c0 -22 -6 -45 -13 -52 -9 -9 -12 -2 -12 36 0 64 -39 106 -99 106 -39 0
-41 2 -41 30 0 26 4 30 26 30 14 0 34 -5 46 -11 18 -10 19 -8 13 11 -8 24 2
90 13 90 4 0 7 -22 7 -50z m886 6 c-7 -8 -36 -30 -64 -48 -29 -18 -58 -38 -65
-45 -7 -7 -21 -13 -31 -13 -10 0 -32 -14 -50 -30 -17 -17 -35 -28 -40 -26 -5
3 -25 -8 -46 -24 -40 -32 -60 -31 -50 1 6 18 5 19 -14 7 -14 -8 -19 -19 -15
-34 3 -12 1 -25 -5 -29 -13 -7 -5 -25 11 -25 5 0 8 7 4 15 -3 8 -1 15 4 15 6
0 10 -4 10 -10 0 -5 11 2 25 16 21 21 29 23 40 14 8 -7 13 -24 11 -41 -2 -16
1 -26 6 -23 5 3 7 13 6 22 -2 9 4 17 12 17 8 1 14 6 13 13 -3 12 103 67 123
64 6 -1 17 9 24 23 7 14 17 25 22 25 5 0 7 -3 4 -8 -2 -4 11 -8 30 -8 19 0 34
3 34 8 0 4 5 8 11 8 5 0 8 -4 4 -9 -3 -5 -1 -12 5 -16 5 -3 10 -1 10 4 0 6 5
11 10 11 6 0 10 -8 8 -17 -2 -10 2 -17 9 -16 7 2 10 -4 7 -12 -4 -8 -1 -15 4
-15 16 0 7 -54 -14 -89 -10 -16 -28 -35 -40 -42 -13 -6 -21 -16 -18 -21 3 -4
-2 -8 -10 -8 -9 0 -16 -5 -16 -11 0 -6 -7 -9 -15 -5 -9 3 -15 0 -15 -9 0 -9
-6 -12 -15 -8 -10 3 -15 1 -13 -8 2 -8 -9 -14 -30 -16 -36 -3 -88 -32 -62 -34
8 -1 4 -4 -10 -8 -14 -4 -25 -13 -25 -21 -1 -8 -7 -14 -13 -12 -7 1 -12 -5
-10 -15 2 -10 -4 -19 -16 -21 -11 -2 -16 0 -12 7 5 7 1 9 -9 5 -11 -5 -14 -2
-9 12 6 17 5 17 -9 -1 -21 -25 -21 -36 -2 -29 8 4 15 2 15 -4 0 -5 -15 -12
-32 -15 -71 -11 -104 -27 -57 -27 14 0 30 5 36 11 6 6 17 8 24 3 9 -5 7 -9 -9
-15 -15 -6 -19 -14 -15 -31 4 -13 2 -20 -3 -15 -5 5 -9 14 -9 20 0 7 -12 11
-27 9 -15 -1 -28 3 -31 12 -7 17 15 38 34 34 7 -2 14 2 14 7 3 22 18 45 25 40
5 -3 12 0 16 6 4 7 3 9 -3 6 -6 -4 -8 14 -5 49 4 47 2 54 -12 48 -9 -3 -16
-12 -16 -20 0 -7 -8 -17 -17 -23 -17 -9 -17 -10 0 -28 21 -24 22 -33 2 -33 -8
0 -15 6 -15 13 0 6 -11 12 -25 12 -25 0 -33 -9 -16 -20 5 -3 -2 -17 -16 -31
-20 -20 -37 -26 -82 -29 -56 -3 -131 -19 -163 -36 -10 -5 -19 -5 -23 1 -10 16
-43 11 -57 -9 -7 -10 -22 -20 -33 -22 -15 -3 -21 -13 -23 -44 -2 -29 0 -36 7
-25 13 19 24 8 15 -14 -4 -9 -13 -15 -20 -12 -9 4 -23 -13 -41 -47 -40 -79
-43 -178 -8 -282 61 -182 179 -315 360 -405 52 -26 71 -41 73 -58 2 -12 7 -20
12 -17 4 3 10 -2 14 -10 8 -21 -1 -19 -82 14 -252 104 -433 337 -472 610 -60
409 237 807 648 868 50 8 62 7 62 -4 0 -7 5 -13 10 -13 6 0 10 7 10 16 0 12 6
15 22 11 14 -4 30 0 42 11 11 9 16 11 12 5 -4 -8 -1 -13 8 -13 9 0 16 -6 16
-14 0 -18 26 -40 34 -27 3 5 0 12 -6 14 -7 3 -4 6 8 6 12 1 39 14 60 30 40 29
56 32 35 7z m103 -41 c3 -8 12 -15 20 -15 17 0 76 -54 76 -69 0 -21 -26 -11
-56 20 -16 17 -51 42 -79 55 l-50 24 41 0 c28 0 44 -5 48 -15z m448 -48 c-23
-52 -75 -113 -113 -133 l-29 -15 0 39 c0 34 4 40 33 54 19 9 54 38 78 66 50
56 59 53 31 -11z m-572 -27 c0 -5 -5 -10 -11 -10 -5 0 -7 5 -4 10 3 6 8 10 11
10 2 0 4 -4 4 -10z m-164 -35 c-6 -19 -15 -35 -19 -35 -10 0 1 39 15 58 16 18
16 15 4 -23z m89 25 c3 -5 1 -10 -4 -10 -6 0 -11 5 -11 10 0 6 2 10 4 10 3 0
8 -4 11 -10z m777 -37 c5 -20 13 -30 21 -27 9 3 13 -5 12 -23 0 -20 8 -33 32
-48 58 -36 34 -49 -29 -16 -36 20 -36 20 -54 -1 -27 -29 -83 -55 -129 -59 -35
-4 -40 -2 -37 16 6 38 11 42 62 48 29 4 63 13 75 21 l23 15 -19 40 c-27 56
-25 73 8 69 21 -2 29 -10 35 -35z m-442 7 c0 -17 -26 -30 -38 -18 -15 15 -16
32 -2 23 6 -3 10 -2 10 4 0 6 7 8 15 5 8 -4 15 -10 15 -14z m15 -20 c-16 -17
-33 -30 -39 -30 -5 0 5 16 24 35 18 19 36 32 39 30 2 -3 -8 -19 -24 -35z
m-1298 -17 c-4 -20 -20 -53 -36 -73 -22 -28 -27 -40 -18 -49 14 -14 27 -14 27
1 0 16 40 58 56 58 13 0 27 -53 15 -58 -5 -1 -17 -9 -27 -17 -18 -13 -16 -14
17 -15 46 0 75 23 93 75 l13 40 17 -39 c15 -36 15 -41 -2 -70 -10 -16 -33 -39
-51 -50 -32 -19 -37 -19 -78 -4 -37 13 -43 14 -39 2 3 -8 1 -14 -4 -14 -5 0
-12 10 -15 23 -13 40 -47 69 -74 62 -24 -6 -24 -5 -10 12 9 10 14 24 12 31 -3
6 2 12 10 12 14 0 33 35 39 75 3 16 14 23 57 34 2 1 1 -15 -2 -36z m1253 -27
c0 -5 13 3 30 19 l30 29 37 -31 c65 -51 150 -161 192 -246 61 -125 75 -190 76
-347 0 -114 -4 -146 -23 -210 -29 -90 -61 -156 -115 -233 -33 -47 -45 -57 -66
-55 -15 1 -32 -1 -39 -6 -7 -4 -12 -5 -12 -2 0 3 13 12 29 21 23 11 31 12 34
2 3 -6 6 -3 6 8 1 12 -3 25 -9 31 -6 6 -1 23 16 48 78 115 125 272 123 413
l-1 78 -9 -54 c-20 -117 -84 -205 -183 -252 -33 -16 -62 -27 -64 -24 -2 2 6
18 18 35 20 27 20 30 4 20 -11 -7 -31 -35 -45 -64 -27 -52 -54 -69 -70 -44 -6
9 -9 5 -9 -13 0 -18 -6 -28 -20 -32 -15 -4 -20 -14 -20 -36 0 -17 -4 -31 -8
-31 -19 0 -4 60 18 78 31 25 33 85 5 107 -16 11 -17 14 -4 15 8 0 20 -5 27
-10 9 -7 9 -7 2 2 -6 7 -10 23 -10 36 0 20 4 23 20 18 24 -7 61 -15 41 -9 -12
4 -12 6 0 14 10 6 3 9 -21 9 -43 -1 -62 -14 -85 -62 -14 -31 -23 -38 -47 -38
-16 0 -27 -4 -23 -9 3 -6 -3 -15 -14 -20 -11 -6 -23 -20 -26 -32 -4 -12 -13
-18 -20 -15 -8 3 -16 0 -19 -7 -3 -9 -5 -9 -5 0 -1 7 14 26 33 43 32 29 58 79
34 64 -6 -4 -9 -1 -6 7 2 7 19 16 36 20 53 11 78 34 88 81 8 36 6 46 -8 60
-26 26 -22 35 12 30 21 -3 30 0 30 9 0 8 15 21 33 29 23 11 36 27 47 58 14 41
17 43 44 38 28 -6 28 -5 13 12 -23 25 -21 35 3 29 28 -7 25 8 -7 33 -14 11
-31 31 -38 43 -15 31 -59 30 -63 0 -4 -27 -8 -28 -29 -7 -13 12 -14 17 -3 24
10 6 9 9 -2 16 -23 13 -27 37 -9 52 9 8 10 11 4 7 -7 -3 -13 -2 -13 4 0 5 8
12 18 14 16 4 16 5 0 6 -19 1 -55 -45 -44 -56 10 -10 -25 -43 -47 -43 -11 0
-36 -10 -55 -22 -30 -18 -35 -19 -29 -5 3 9 2 17 -3 17 -5 0 -10 -8 -12 -17
-2 -10 -4 6 -4 35 0 62 -15 83 -44 64 -24 -15 -25 -9 -4 23 20 30 25 31 53 6
13 -11 29 -17 37 -14 9 3 14 -2 14 -16 0 -15 6 -21 21 -21 11 0 17 5 14 10 -6
10 7 14 32 11 6 -1 19 11 28 26 9 16 34 40 56 55 36 26 90 108 70 108 -12 0
-46 -51 -46 -70 -1 -8 -6 -14 -13 -12 -7 1 -12 -3 -12 -8 0 -7 -6 -7 -19 0
-28 15 -34 13 -28 -10 4 -15 0 -20 -14 -20 -10 0 -19 -4 -19 -10 0 -5 5 -10
11 -10 5 0 7 -5 4 -10 -4 -6 -11 -8 -16 -5 -5 4 -9 1 -9 -6 0 -9 -3 -9 -14 0
-11 9 -15 7 -21 -11 -6 -19 -8 -20 -12 -6 -3 10 13 32 42 59 58 53 85 105 92
177 5 49 8 53 20 37 7 -11 13 -23 13 -29z m-93 -58 c-3 -8 -6 -5 -6 6 -1 11 2
17 5 13 3 -3 4 -12 1 -19z m-26 -55 c-15 -28 -40 -59 -41 -50 0 16 31 67 41
67 6 0 6 -6 0 -17z m724 -47 c32 -32 41 -83 22 -127 l-15 -34 -1 58 c-1 43 -6
62 -21 77 -25 25 -32 25 -55 0 -13 -14 -16 -28 -11 -54 8 -43 26 -57 26 -21 0
15 4 24 10 20 6 -4 8 -21 4 -41 -4 -22 -2 -34 5 -34 6 0 11 -5 11 -11 0 -5 -5
-7 -11 -4 -5 4 -18 0 -27 -8 -75 -68 -172 -23 -172 79 0 29 7 44 38 72 l37 36
3 -33 c2 -20 -3 -40 -12 -50 -44 -49 19 -127 74 -91 13 9 13 11 0 20 -8 5 -19
11 -24 13 -5 1 -11 25 -13 52 -4 41 -1 55 17 78 28 36 81 37 115 3z m-1800
-117 c4 -13 -2 -30 -19 -50 -30 -35 -32 -51 -11 -69 19 -16 20 -31 1 -24 -11
4 -13 0 -10 -18 4 -16 -1 -11 -15 14 -26 45 -72 63 -145 54 -49 -5 -53 -4 -69
23 l-17 29 31 6 c36 7 114 -9 146 -29 24 -16 27 -14 37 30 4 17 14 40 22 53
12 18 18 21 29 12 8 -7 17 -20 20 -31z m938 -15 c-4 -24 -9 -31 -23 -27 -10 3
-21 0 -24 -6 -5 -7 -1 -8 9 -5 21 8 42 -21 50 -69 8 -45 32 -60 94 -60 49 0
81 27 81 69 0 12 5 26 11 30 9 5 10 -1 5 -21 -7 -26 -6 -27 24 -23 23 3 30 1
26 -9 -3 -8 2 -13 12 -13 13 0 11 -4 -8 -15 -14 -8 -33 -18 -42 -21 -10 -3
-18 -10 -18 -15 0 -12 33 1 47 18 6 8 17 13 24 11 8 -3 0 -12 -19 -23 -20 -12
-30 -25 -27 -34 3 -8 -7 -27 -22 -43 -16 -17 -21 -28 -13 -28 7 0 11 -2 8 -5
-8 -9 -36 5 -42 21 -5 12 -1 14 16 8 17 -5 20 -3 15 11 -4 9 -7 21 -7 26 0 5
-6 9 -13 9 -8 0 -28 7 -45 16 -18 8 -41 13 -52 9 -11 -3 -20 -2 -20 2 0 5 -16
15 -35 22 -19 7 -35 17 -35 22 0 6 -4 8 -8 5 -5 -3 -8 3 -8 12 0 54 -5 72 -19
72 -8 0 -15 4 -15 10 0 12 53 65 63 62 4 -1 7 3 7 10 0 6 2 9 4 7 2 -2 1 -18
-1 -35z m-53 1 c-7 -9 -15 -13 -17 -11 -7 7 7 26 19 26 6 0 6 -6 -2 -15z m360
-71 c0 -8 -4 -12 -10 -9 -5 3 -10 10 -10 16 0 5 5 9 10 9 6 0 10 -7 10 -16z
m-1000 -21 c-1 -18 -18 -35 -24 -24 -4 6 -4 16 -1 21 7 12 25 13 25 3z m980 3
c0 -3 -4 -8 -10 -11 -5 -3 -10 -1 -10 4 0 6 5 11 10 11 6 0 10 -2 10 -4z
m-945 -19 c7 10 17 15 21 11 4 -5 -1 -17 -11 -27 -16 -19 -16 -21 3 -46 19
-24 21 -25 32 -8 9 16 10 15 4 -6 -4 -16 -3 -21 5 -17 6 4 14 -1 18 -11 4 -10
16 -25 28 -35 25 -20 92 -41 105 -33 6 3 10 1 10 -5 0 -6 -16 -9 -39 -8 -21 2
-38 5 -36 8 2 3 -10 7 -27 8 -20 2 -28 -2 -25 -10 2 -7 12 -12 23 -10 24 3 74
-43 74 -68 0 -21 28 -40 59 -40 29 0 26 -24 -5 -49 -29 -23 -92 -28 -126 -10
-26 14 -56 83 -50 114 5 26 16 32 27 15 3 -5 10 -10 16 -10 5 0 9 5 9 10 0 6
-6 10 -14 10 -17 0 -28 15 -31 39 -6 58 -77 128 -120 117 -15 -4 -25 -1 -28 8
-8 20 3 27 24 15 15 -7 19 -6 20 6 1 15 4 27 9 43 1 4 4 -1 7 -11 5 -18 5 -18
18 0z m605 -23 c0 -14 -4 -23 -10 -19 -5 3 -10 15 -10 26 0 10 5 19 10 19 6 0
10 -12 10 -26z m968 10 c45 -32 23 -44 -101 -54 -62 -4 -93 -12 -105 -23 -9
-10 -12 -17 -5 -17 7 0 23 -11 37 -25 22 -22 34 -25 90 -25 59 0 116 -14 116
-29 0 -7 -191 -6 -230 1 -54 10 -48 113 9 142 14 8 49 17 76 20 28 4 57 11 65
17 20 12 22 11 48 -7z m-1208 -9 c0 -8 -4 -15 -10 -15 -5 0 -10 7 -10 15 0 8
5 15 10 15 6 0 10 -7 10 -15z m-330 -16 c0 -6 -4 -7 -10 -4 -5 3 -10 11 -10
16 0 6 5 7 10 4 6 -3 10 -11 10 -16z m947 5 c-3 -3 -12 -4 -19 -1 -8 3 -5 6 6
6 11 1 17 -2 13 -5z m-340 -40 c4 0 21 -6 36 -12 16 -7 41 -12 57 -12 16 0 31
-4 35 -9 5 -9 -63 -7 -130 3 -16 3 -22 3 -12 0 9 -3 17 -9 17 -12 -1 -35 -70
-35 -70 0 0 10 4 17 9 14 4 -3 6 7 4 22 -4 23 -3 24 7 10 6 -10 16 -18 22 -18
7 0 7 4 -1 13 -6 8 -8 17 -4 21 4 3 10 1 14 -6 5 -7 12 -13 16 -14z m-970 -14
l25 -19 -48 -23 c-58 -28 -64 -41 -25 -58 59 -24 78 -69 39 -94 -26 -16 -53 5
-53 39 0 38 -32 50 -61 23 -13 -12 -24 -15 -28 -9 -4 5 -2 12 4 16 17 10 11
25 -10 25 -11 0 -30 -11 -42 -25 -21 -25 -45 -35 -32 -14 3 6 0 15 -7 20 -12
8 -12 10 0 18 12 8 13 15 4 34 -10 21 -9 28 6 41 14 13 24 14 55 5 41 -11 95
1 116 27 16 19 27 18 57 -6z m683 -20 c0 -5 -4 -10 -10 -10 -5 0 -10 5 -10 10
0 6 5 10 10 10 6 0 10 -4 10 -10z m-175 -20 c3 -5 -3 -10 -14 -10 -12 0 -21 5
-21 10 0 6 6 10 14 10 8 0 18 -4 21 -10z m82 -15 c-4 -8 -11 -15 -17 -15 -6 0
-6 7 2 20 14 22 24 19 15 -5z m97 -7 c1 -7 8 -23 14 -35 7 -13 9 -23 5 -23 -4
0 3 -7 15 -16 12 -8 20 -19 17 -24 -3 -5 4 -11 15 -15 26 -8 26 -25 -1 -25
-12 0 -23 8 -26 20 -3 11 -9 20 -14 20 -4 0 -15 15 -22 33 -23 50 -28 68 -21
79 7 11 15 5 18 -14z m-44 -2 c0 -2 -8 -10 -17 -17 -16 -13 -17 -12 -4 4 13
16 21 21 21 13z m381 -6 c26 -7 41 -21 58 -51 13 -22 21 -43 18 -46 -3 -2 -11
6 -18 19 -25 48 -53 51 -34 4 16 -38 8 -51 -25 -41 -18 6 -20 3 -14 -19 8 -32
0 -32 -51 -5 l-40 21 23 -25 c20 -21 21 -25 8 -30 -9 -4 -16 -1 -16 5 0 6 -3
8 -7 4 -7 -7 -73 53 -73 67 0 5 8 3 17 -4 15 -12 16 -12 10 5 -6 14 -4 17 10
12 14 -6 15 -4 6 5 -9 9 -6 17 13 36 13 13 29 21 34 18 6 -3 10 -1 10 5 0 6 5
8 10 5 6 -3 10 1 10 9 0 19 4 19 51 6z m-465 -46 c8 3 14 1 14 -4 0 -15 -64
-12 -86 5 -17 13 -15 13 19 4 22 -6 45 -8 53 -5z m59 -4 c3 -5 1 -10 -5 -10
-7 0 -10 -7 -6 -15 3 -8 1 -15 -5 -15 -6 0 -6 -8 1 -21 16 -29 7 -34 -24 -14
-14 10 -26 14 -26 10 0 -4 -7 -2 -15 5 -23 19 -18 40 9 40 13 0 29 7 36 15 14
17 26 19 35 5z m180 -91 c4 -5 18 -14 32 -20 13 -5 22 -13 18 -19 -7 -11 -35
-2 -35 11 0 5 -9 9 -19 9 -21 0 -34 13 -24 24 9 9 21 7 28 -5z m85 -49 c0 -5
-4 -10 -10 -10 -5 0 -10 5 -10 10 0 6 5 10 10 10 6 0 10 -4 10 -10z m55 -20
c4 -6 -5 -10 -19 -10 -14 0 -26 5 -26 10 0 6 9 10 19 10 11 0 23 -4 26 -10z
m31 -25 c-3 -8 -1 -15 4 -15 6 0 10 -7 10 -15 0 -10 -17 -16 -60 -21 -60 -7
-78 -25 -32 -32 32 -5 28 -32 -5 -33 l-28 -1 28 -11 c37 -15 30 -28 -25 -42
-51 -13 -126 -57 -135 -80 -7 -19 -18 -19 -38 1 -14 15 -14 20 10 60 14 24 21
44 15 44 -5 0 -10 10 -10 22 0 17 -3 19 -12 10 -14 -14 -28 -16 -28 -3 0 5 18
16 39 25 22 8 45 25 51 36 6 11 16 20 23 19 7 -1 38 -1 70 0 43 1 57 5 57 16
0 8 9 15 19 15 11 0 23 5 26 10 10 16 28 12 21 -5z m156 -154 c-3 -44 0 -57
19 -77 12 -13 28 -24 36 -24 7 0 13 -7 13 -15 0 -8 9 -15 20 -15 11 0 20 5 20
11 0 6 9 8 20 4 13 -4 20 -2 20 6 0 8 6 6 18 -4 10 -10 24 -17 30 -17 6 0 9
-6 6 -14 -3 -9 5 -15 25 -19 17 -4 31 -12 31 -18 0 -6 -7 -9 -15 -5 -8 3 -14
0 -12 -6 3 -18 -136 -113 -215 -146 -86 -36 -206 -62 -280 -62 l-53 1 39 19
c21 11 44 24 52 30 7 7 45 18 85 26 39 9 95 26 124 39 29 12 67 26 84 30 20 4
29 11 24 18 -4 6 -7 23 -7 37 -1 18 -7 26 -24 28 -12 2 -20 8 -16 13 3 5 10 7
15 4 5 -4 9 -2 9 4 0 12 -39 36 -59 36 -8 0 -22 13 -31 29 -9 16 -21 31 -28
32 -7 1 -8 0 -2 -3 5 -2 10 -9 10 -15 0 -7 -5 -7 -13 1 -8 6 -16 8 -19 5 -3
-3 -9 0 -14 7 -4 7 -3 10 3 6 12 -8 33 43 33 79 0 21 21 35 45 29 6 -1 8 -25
7 -54z m-542 8 c0 8 2 12 5 9 7 -7 -5 -38 -15 -38 -8 0 -40 56 -40 69 0 3 11
-7 25 -24 14 -17 24 -24 25 -16z m106 -37 c-14 -14 -16 -14 -16 -1 0 20 23 44
29 28 2 -6 -4 -18 -13 -27z m346 16 c-7 -7 -12 -8 -12 -2 0 14 12 26 19 19 2
-3 -1 -11 -7 -17z m-87 -28 c-3 -5 -13 -6 -21 -3 -12 4 -13 8 -3 14 15 9 32 2
24 -11z m65 11 c0 -12 -29 -23 -41 -15 -18 10 -9 24 16 24 14 0 25 -4 25 -9z
m-153 -23 c-1 -17 4 -24 21 -26 12 -2 27 -12 33 -23 5 -11 14 -17 18 -14 5 3
11 -1 14 -8 6 -17 -11 -59 -22 -52 -5 3 -13 0 -16 -5 -5 -7 -12 -5 -22 7 -13
17 -14 17 -9 1 6 -19 -18 -26 -29 -8 -4 6 -12 7 -18 4 -7 -4 -9 -4 -5 1 4 4 3
14 -2 20 -6 7 -8 20 -4 28 7 20 62 12 82 -12 7 -9 6 -2 -3 15 -10 16 -26 34
-38 40 -24 11 -34 54 -12 54 9 0 14 -8 12 -22z m43 18 c0 -11 -19 -15 -25 -6
-3 5 1 10 9 10 9 0 16 -2 16 -4z m440 -29 c0 -20 0 -20 -22 -1 -20 16 -21 17
-9 1 20 -25 1 -43 -27 -26 -18 11 -19 15 -6 34 19 29 64 23 64 -8z m-796 -8
c-8 -13 -24 -1 -24 18 0 13 3 13 15 3 8 -7 12 -16 9 -21z m276 21 c0 -5 -7
-10 -16 -10 -8 0 -12 5 -9 10 3 6 10 10 16 10 5 0 9 -4 9 -10z m-233 -6 c-3
-3 -12 -4 -19 -1 -8 3 -5 6 6 6 11 1 17 -2 13 -5z m63 -58 c0 -8 3 -21 6 -30
3 -9 2 -16 -4 -16 -5 0 -12 14 -14 30 -3 17 -1 30 4 30 4 0 8 -6 8 -14z m505
-26 c3 -5 1 -10 -4 -10 -6 0 -11 5 -11 10 0 6 2 10 4 10 3 0 8 -4 11 -10z
m-365 -10 c0 -5 -4 -10 -10 -10 -5 0 -10 5 -10 10 0 6 5 10 10 10 6 0 10 -4
10 -10z m634 -63 c-3 -9 -11 -17 -16 -17 -6 0 -7 7 -4 16 3 9 6 21 6 27 0 8 3
8 10 1 6 -6 8 -18 4 -27z m-650 -33 c9 -3 14 -10 11 -14 -3 -5 0 -12 6 -16 8
-4 9 -3 5 4 -4 7 -1 12 8 12 9 0 16 -4 16 -9 0 -5 7 -17 16 -25 13 -13 13 -18
2 -29 -7 -8 -25 -16 -38 -19 -14 -3 -32 -8 -41 -12 -11 -5 -19 1 -27 19 -6 14
-16 25 -22 25 -5 0 -10 5 -10 11 0 6 7 9 15 5 22 -8 18 3 -7 25 l-23 19 33 -5
c22 -4 31 -2 27 5 -7 11 5 13 29 4z m91 -4 c-3 -5 -12 -10 -20 -10 -8 0 -17 5
-20 10 -4 6 5 10 20 10 15 0 24 -4 20 -10z m-135 -138 c3 -3 -12 -2 -34 1
l-38 6 4 -52 c3 -29 3 -46 1 -39 -8 21 -23 13 -23 -13 0 -14 -4 -25 -10 -25
-5 0 -10 11 -10 24 0 13 -2 30 -3 38 -2 7 -2 10 0 6 11 -20 23 -5 23 28 0 49
24 68 60 46 14 -9 27 -18 30 -20z m-14 -65 c15 -28 15 -29 -8 -22 -22 7 -22 7
-7 -11 30 -36 33 -47 11 -40 -21 7 -21 7 1 -34 19 -35 20 -42 7 -50 -13 -8
-12 -10 5 -11 11 -1 25 -1 31 0 16 2 64 -56 64 -76 0 -11 -6 -8 -20 10 -19 24
-33 30 -100 42 -14 2 -35 16 -47 30 -22 25 -35 32 -31 16 3 -10 -4 -11 -32 -4
-16 4 -20 14 -20 43 0 21 7 45 15 53 8 8 12 17 9 20 -3 3 -1 8 5 12 7 3 11 -2
11 -14 0 -12 -4 -21 -10 -21 -5 0 -10 -4 -10 -10 0 -5 6 -7 14 -4 8 3 24 1 35
-6 19 -9 21 -8 21 15 0 14 5 25 11 25 8 0 9 15 4 47 -6 43 -5 46 10 33 9 -7
23 -27 31 -43z"/>
<path d="M896 2267 c-18 -13 -17 -15 5 -50 29 -45 43 -47 34 -7 -4 19 -3 30 4
30 6 0 11 -10 11 -21 0 -18 2 -19 15 -9 48 39 -19 94 -69 57z"/>
<path d="M1279 1983 c-13 -16 -12 -17 4 -4 9 7 17 15 17 17 0 8 -8 3 -21 -13z"/>
<path d="M1185 1960 c-15 -8 -13 -9 13 -4 48 8 39 -3 -23 -31 -30 -13 -55 -26
-55 -29 0 -9 121 49 123 59 3 13 -33 16 -58 5z"/>
<path d="M1055 1900 c-18 -8 -17 -9 8 -9 16 -1 26 3 22 9 -3 6 -7 10 -8 9 -1
0 -11 -4 -22 -9z"/>
<path d="M1030 1849 c0 -5 5 -7 10 -4 6 3 10 8 10 11 0 2 -4 4 -10 4 -5 0 -10
-5 -10 -11z"/>
<path d="M1300 1849 c0 -5 5 -7 10 -4 6 3 10 8 10 11 0 2 -4 4 -10 4 -5 0 -10
-5 -10 -11z"/>
<path d="M1330 1844 c0 -8 5 -12 10 -9 6 3 10 10 10 16 0 5 -4 9 -10 9 -5 0
-10 -7 -10 -16z"/>
<path d="M1193 1776 c-22 -24 -52 -45 -66 -48 -15 -3 -24 -1 -21 3 3 5 -2 9
-10 9 -19 0 -21 -14 -3 -28 19 -16 69 10 105 55 17 22 38 40 46 40 19 0 16
-19 -4 -29 -8 -5 0 -5 19 -2 25 5 32 3 26 -6 -8 -13 15 -3 49 23 18 13 18 14
-3 20 -17 4 -21 2 -17 -8 9 -25 -16 -29 -35 -7 -25 31 -39 28 -86 -22z"/>
<path d="M1020 1780 c-8 -5 -12 -12 -9 -15 4 -3 12 1 19 10 14 17 11 19 -10 5z"/>
<path d="M960 1750 c0 -5 -9 -10 -21 -10 -11 0 -17 -4 -14 -10 9 -14 16 -12
45 10 20 16 22 20 8 20 -10 0 -18 -4 -18 -10z"/>
<path d="M1216 1708 c-37 -43 -48 -50 -55 -38 -8 12 -12 12 -21 2 -5 -6 -7
-10 -3 -7 3 3 14 -2 24 -11 15 -14 20 -10 63 45 25 34 44 61 42 61 -2 0 -25
-24 -50 -52z"/>
<path d="M1017 1739 c6 -6 9 -18 6 -25 -4 -10 0 -12 11 -8 9 3 16 9 16 13 0
10 -23 31 -34 31 -6 0 -5 -5 1 -11z"/>
<path d="M1189 1723 c-13 -16 -12 -17 4 -4 9 7 17 15 17 17 0 8 -8 3 -21 -13z"/>
<path d="M975 1720 c-7 -11 2 -30 13 -30 4 0 8 9 9 20 2 21 -11 27 -22 10z"/>
<path d="M1358 1722 c-10 -2 -18 -8 -18 -13 0 -11 11 -11 30 1 18 11 11 18
-12 12z"/>
<path d="M866 1679 c-23 -22 -15 -36 13 -23 12 6 16 15 12 25 -5 14 -8 14 -25
-2z"/>
<path d="M1045 1680 c-10 -11 -22 -17 -26 -14 -5 3 -9 1 -9 -5 0 -15 -65 -24
-88 -12 -14 7 -24 7 -38 -4 -10 -7 -16 -17 -11 -21 4 -4 7 -3 7 3 0 7 12 8 37
3 20 -5 41 -7 45 -4 4 3 8 -3 8 -12 0 -17 1 -17 13 0 7 9 34 30 60 45 26 15
44 30 40 34 -10 11 -19 8 -38 -13z"/>
<path d="M1266 1684 c-8 -22 -4 -25 11 -9 7 8 9 16 4 19 -5 3 -12 -1 -15 -10z"/>
<path d="M1141 1624 c0 -11 3 -14 6 -6 3 7 2 16 -1 19 -3 4 -6 -2 -5 -13z"/>
<path d="M901 1594 c0 -11 3 -14 6 -6 3 7 2 16 -1 19 -3 4 -6 -2 -5 -13z"/>
<path d="M950 1581 c0 -6 5 -13 10 -16 6 -3 10 1 10 9 0 9 -4 16 -10 16 -5 0
-10 -4 -10 -9z"/>
<path d="M795 1540 c-17 -19 -17 -20 0 -20 10 0 15 3 12 7 -4 3 -2 12 4 20 18
21 4 15 -16 -7z"/>
<path d="M829 1543 c-13 -16 -12 -17 4 -4 9 7 17 15 17 17 0 8 -8 3 -21 -13z"/>
<path d="M1630 1770 c0 -5 7 -10 15 -10 8 0 15 5 15 10 0 6 -7 10 -15 10 -8 0
-15 -4 -15 -10z"/>
<path d="M1613 1735 c-17 -18 -16 -22 2 -22 8 0 15 9 15 19 0 21 -1 22 -17 3z"/>
<path d="M1745 1710 c-3 -5 -2 -10 4 -10 5 0 13 5 16 10 3 6 2 10 -4 10 -5 0
-13 -4 -16 -10z"/>
<path d="M1755 1692 c-18 -9 -25 -17 -17 -20 7 -2 22 4 33 14 15 14 19 14 19
3 0 -8 -6 -21 -12 -29 -11 -12 -10 -12 5 -1 17 13 24 52 10 50 -5 -1 -21 -8
-38 -17z"/>
<path d="M1692 1688 c-12 -16 -21 -79 -10 -72 4 3 8 20 8 37 0 23 3 28 9 17 6
-8 7 -18 5 -22 -3 -4 2 -8 11 -8 14 0 14 2 0 23 -8 13 -12 27 -8 30 3 4 4 7 1
7 -3 0 -10 -6 -16 -12z"/>
<path d="M1700 1620 c0 -5 5 -10 10 -10 6 0 10 5 10 10 0 6 -4 10 -10 10 -5 0
-10 -4 -10 -10z"/>
<path d="M1638 1603 c7 -3 16 -2 19 1 4 3 -2 6 -13 5 -11 0 -14 -3 -6 -6z"/>
<path d="M1638 1568 c5 -5 16 -8 23 -6 8 3 3 7 -10 11 -17 4 -21 3 -13 -5z"/>
<path d="M1442 1553 c1 -10 -1 -23 -5 -29 -4 -7 0 -15 9 -18 12 -4 15 -2 11 9
-4 8 -2 17 3 20 11 7 2 35 -12 35 -5 0 -8 -8 -6 -17z"/>
<path d="M1486 1531 c-11 -4 -15 -10 -9 -14 5 -3 19 0 29 8 20 15 11 18 -20 6z"/>
<path d="M1682 1253 c-6 -2 -10 -9 -7 -13 3 -5 -12 -18 -35 -30 -22 -11 -40
-23 -40 -26 0 -10 104 52 108 64 4 12 -4 14 -26 5z"/>
<path d="M1748 1208 c-7 -7 -20 -14 -28 -16 -8 -2 -24 -12 -35 -21 -11 -10
-27 -16 -35 -13 -12 3 -12 2 -3 -8 9 -10 18 -7 44 14 17 15 33 25 35 23 3 -2
-7 -25 -22 -50 -14 -26 -23 -47 -20 -47 3 0 15 18 26 40 12 23 30 50 41 61 23
23 20 38 -3 17z"/>
<path d="M1642 1183 c-23 -15 -39 -29 -37 -32 3 -2 14 4 26 15 12 10 24 18 28
17 10 -2 36 15 30 21 -3 3 -24 -6 -47 -21z"/>
<path d="M1633 1014 c-13 -14 -18 -24 -11 -22 10 4 45 48 37 48 -2 0 -14 -12
-26 -26z"/>
<path d="M228 1278 c3 -13 14 -18 38 -18 49 0 49 14 0 26 -39 9 -43 8 -38 -8z"/>
<path d="M1397 1259 c7 -7 15 -10 18 -7 3 3 -2 9 -12 12 -14 6 -15 5 -6 -5z"/>
<path d="M1248 943 c7 -3 16 -2 19 1 4 3 -2 6 -13 5 -11 0 -14 -3 -6 -6z"/>
<path d="M1200 929 c0 -5 5 -7 10 -4 6 3 10 8 10 11 0 2 -4 4 -10 4 -5 0 -10
-5 -10 -11z"/>
<path d="M1145 900 c-3 -6 1 -7 9 -4 18 7 21 14 7 14 -6 0 -13 -4 -16 -10z"/>
<path d="M1120 829 c-7 -11 -10 -23 -7 -25 2 -2 9 7 15 21 14 30 7 33 -8 4z"/>
<path d="M1710 700 c-8 -5 -26 -10 -39 -10 -18 0 -22 -3 -14 -11 8 -8 22 -5
49 10 22 11 35 20 29 20 -5 1 -17 -4 -25 -9z"/>
<path d="M1650 650 c-9 -6 -10 -10 -3 -10 6 0 15 5 18 10 8 12 4 12 -15 0z"/>
<path d="M1085 290 c3 -5 8 -10 11 -10 2 0 4 5 4 10 0 6 -5 10 -11 10 -5 0 -7
-4 -4 -10z"/>
</g>
</svg>
