<?xml version="1.0" encoding="UTF-8"?>
<!DOCTYPE svg PUBLIC "-//W3C//DTD SVG 1.1//EN" "http://www.w3.org/Graphics/SVG/1.1/DTD/svg11.dtd">
<svg xmlns="http://www.w3.org/2000/svg" version="1.1" width="666px" height="375px" style="shape-rendering:geometricPrecision; text-rendering:geometricPrecision; image-rendering:optimizeQuality; fill-rule:evenodd; clip-rule:evenodd" xmlns:xlink="http://www.w3.org/1999/xlink">
<g><path style="opacity:0.012" fill="#d4cdca" d="M 356.5,9.5 C 357.077,8.22671 357.743,8.22671 358.5,9.5C 358.03,10.463 357.363,10.463 356.5,9.5 Z"/></g>
<g><path style="opacity:0.995" fill="#fefefe" d="M 344.5,9.5 C 346.861,9.67412 349.194,10.0074 351.5,10.5C 384.499,18.3252 406.666,38.3252 418,70.5C 429.035,117.581 413.868,153.415 372.5,178C 367.322,180.393 361.988,182.393 356.5,184C 342.618,186.608 328.618,188.275 314.5,189C 274.472,199.197 250.972,224.697 244,265.5C 242.722,320.848 268.889,354.348 322.5,366C 318.617,367.176 314.617,367.176 310.5,366C 289.13,362.876 268.796,356.542 249.5,347C 243.422,343.639 237.755,339.805 232.5,335.5C 229.869,333.046 227.036,330.713 224,328.5C 223.644,325.271 221.81,323.771 218.5,324C 211.772,318.605 205.772,312.605 200.5,306C 200.833,305.667 201.167,305.333 201.5,305C 197.092,302.264 193.258,298.764 190,294.5C 189.601,294.728 189.435,295.062 189.5,295.5C 180.466,284.777 173.466,272.777 168.5,259.5C 168.606,252.933 166.939,246.933 163.5,241.5C 164.219,239.265 164.052,236.931 163,234.5C 162.667,235.167 162.333,235.833 162,236.5C 155.536,217.706 153.203,198.373 155,178.5C 156.75,169.268 157.75,159.935 158,150.5C 159.088,144.567 160.588,138.734 162.5,133C 162.43,132.235 162.097,131.735 161.5,131.5C 161.5,130.833 161.833,130.5 162.5,130.5C 164.255,128.239 165.422,125.572 166,122.5C 167.041,120.415 168.541,118.748 170.5,117.5C 172.311,110.628 175.311,104.461 179.5,99C 181.994,90.2342 186.66,82.4009 193.5,75.5C 194.609,76.5896 195.609,76.5896 196.5,75.5C 199.263,71.6353 201.763,67.6353 204,63.5C 205.351,61.981 206.851,60.6477 208.5,59.5C 209.451,60.3256 210.451,60.4922 211.5,60C 211.167,59.6667 210.833,59.3333 210.5,59C 216.869,54.6312 222.202,49.2979 226.5,43C 234.435,37.782 242.602,32.9487 251,28.5C 251.772,28.6448 252.439,28.9781 253,29.5C 254.733,27.853 256.566,26.353 258.5,25C 262.207,24.2627 265.873,23.4293 269.5,22.5C 269.5,21.5 269.5,20.5 269.5,19.5C 275.902,17.2851 282.402,15.2851 289,13.5C 291.054,14.0788 293.054,14.4121 295,14.5C 295.833,13.6667 296.667,12.8333 297.5,12C 313.046,8.64406 328.713,7.81072 344.5,9.5 Z M 326.5,65.5 C 352.308,65.1412 364.808,77.8078 364,103.5C 358.393,122.757 345.559,131.257 325.5,129C 307.293,123.116 299.126,110.616 301,91.5C 304.348,77.6528 312.848,68.9861 326.5,65.5 Z"/></g>
<g><path style="opacity:0.498" fill="#80786f" d="M 344.5,9.5 C 346.607,8.53178 348.941,8.19845 351.5,8.5C 351.5,9.16667 351.5,9.83333 351.5,10.5C 349.194,10.0074 346.861,9.67412 344.5,9.5 Z"/></g>
<g><path style="opacity:0.035" fill="#fefffe" d="M 369.5,11.5 C 368.833,10.1667 368.833,10.1667 369.5,11.5 Z"/></g>
<g><path style="opacity:0.098" fill="#9e9488" d="M 369.5,11.5 C 370.239,11.369 370.906,11.5357 371.5,12C 370.563,12.6917 369.897,12.525 369.5,11.5 Z"/></g>
<g><path style="opacity:0.024" fill="#fff9f4" d="M 376.5,13.5 C 376.897,12.475 377.563,12.3083 378.5,13C 377.906,13.4643 377.239,13.631 376.5,13.5 Z"/></g>
<g><path style="opacity:0.063" fill="#eadad4" d="M 380.5,14.5 C 381.251,13.4265 382.251,13.2599 383.5,14C 382.648,15.7284 381.648,15.895 380.5,14.5 Z"/></g>
<g><path style="opacity:0.008" fill="#fffcf1" d="M 384.5,15.5 C 384.897,14.475 385.563,14.3083 386.5,15C 385.906,15.4643 385.239,15.631 384.5,15.5 Z"/></g>
<g><path style="opacity:0.035" fill="#fefffe" d="M 387.5,15.5 C 388.833,16.1667 388.833,16.1667 387.5,15.5 Z"/></g>
<g><path style="opacity:0.004" fill="#fefffe" d="M 393.5,17.5 C 394.833,18.1667 394.833,18.1667 393.5,17.5 Z"/></g>
<g><path style="opacity:0.008" fill="#fefffe" d="M 396.5,18.5 C 397.833,19.1667 397.833,19.1667 396.5,18.5 Z"/></g>
<g><path style="opacity:0.047" fill="#fefffe" d="M 398.5,19.5 C 399.833,20.1667 399.833,20.1667 398.5,19.5 Z"/></g>
<g><path style="opacity:0.051" fill="#e8e5d2" d="M 403.5,21.5 C 402.352,22.895 401.352,22.7284 400.5,21C 401.749,20.2599 402.749,20.4265 403.5,21.5 Z"/></g>
<g><path style="opacity:0.059" fill="#feffdc" d="M 403.5,21.5 C 404.833,22.1667 404.833,22.1667 403.5,21.5 Z"/></g>
<g><path style="opacity:0.047" fill="#fefffe" d="M 405.5,22.5 C 406.833,23.1667 406.833,23.1667 405.5,22.5 Z"/></g>
<g><path style="opacity:0.102" fill="#f4ebea" d="M 409.5,24.5 C 410.833,25.1667 410.833,25.1667 409.5,24.5 Z"/></g>
<g><path style="opacity:0.02" fill="#fefffe" d="M 413.5,26.5 C 412.833,25.1667 412.833,25.1667 413.5,26.5 Z"/></g>
<g><path style="opacity:0.071" fill="#fefffe" d="M 413.5,26.5 C 414.833,27.1667 414.833,27.1667 413.5,26.5 Z"/></g>
<g><path style="opacity:0.024" fill="#fffcf7" d="M 417.5,28.5 C 416.761,28.631 416.094,28.4643 415.5,28C 416.437,27.3083 417.103,27.475 417.5,28.5 Z"/></g>
<g><path style="opacity:0.067" fill="#fef0e0" d="M 417.5,28.5 C 418.833,29.1667 418.833,29.1667 417.5,28.5 Z"/></g>
<g><path style="opacity:0.035" fill="#fefffe" d="M 419.5,29.5 C 420.833,30.1667 420.833,30.1667 419.5,29.5 Z"/></g>
<g><path style="opacity:0.008" fill="#fefffe" d="M 424.5,32.5 C 423.833,31.1667 423.833,31.1667 424.5,32.5 Z"/></g>
<g><path style="opacity:0.047" fill="#fefffe" d="M 424.5,32.5 C 425.833,33.1667 425.833,33.1667 424.5,32.5 Z"/></g>
<g><path style="opacity:0.024" fill="#fefffe" d="M 427.5,34.5 C 426.833,33.1667 426.833,33.1667 427.5,34.5 Z"/></g>
<g><path style="opacity:0.012" fill="#fcf6f1" d="M 427.5,34.5 C 428.492,34.3284 429.158,34.6618 429.5,35.5C 428.508,35.6716 427.842,35.3382 427.5,34.5 Z"/></g>
<g><path style="opacity:0.071" fill="#fefffe" d="M 429.5,35.5 C 430.167,35.5 430.5,35.8333 430.5,36.5C 430.167,36.1667 429.833,35.8333 429.5,35.5 Z"/></g>
<g><path style="opacity:0.078" fill="#fef2f1" d="M 430.5,36.5 C 431.833,37.1667 431.833,37.1667 430.5,36.5 Z"/></g>
<g><path style="opacity:0.004" fill="#fefbf5" d="M 435.5,39.5 C 434.244,39.5386 433.244,39.0386 432.5,38C 433.998,37.4153 434.998,37.9153 435.5,39.5 Z"/></g>
<g><path style="opacity:0.024" fill="#fefffe" d="M 435.5,39.5 C 436.167,39.5 436.5,39.8333 436.5,40.5C 436.167,40.1667 435.833,39.8333 435.5,39.5 Z"/></g>
<g><path style="opacity:0.059" fill="#feeedc" d="M 436.5,40.5 C 437.833,41.1667 437.833,41.1667 436.5,40.5 Z"/></g>
<g><path style="opacity:0.004" fill="#fefffe" d="M 439.5,42.5 C 438.833,41.1667 438.833,41.1667 439.5,42.5 Z"/></g>
<g><path style="opacity:0.063" fill="#feffee" d="M 439.5,42.5 C 440.167,42.5 440.5,42.8333 440.5,43.5C 440.167,43.1667 439.833,42.8333 439.5,42.5 Z"/></g>
<g><path style="opacity:0.125" fill="#f6efde" d="M 440.5,43.5 C 441.833,44.1667 441.833,44.1667 440.5,43.5 Z"/></g>
<g><path style="opacity:0.059" fill="#feffed" d="M 444.5,46.5 C 443.833,45.1667 443.833,45.1667 444.5,46.5 Z"/></g>
<g><path style="opacity:0.067" fill="#fef0e0" d="M 444.5,46.5 C 445.167,46.5 445.5,46.8333 445.5,47.5C 445.167,47.1667 444.833,46.8333 444.5,46.5 Z"/></g>
<g><path style="opacity:0.031" fill="#feffde" d="M 445.5,47.5 C 446.833,48.1667 446.833,48.1667 445.5,47.5 Z"/></g>
<g><path style="opacity:0.027" fill="#fefffe" d="M 448.5,49.5 C 447.833,48.1667 447.833,48.1667 448.5,49.5 Z"/></g>
<g><path style="opacity:0.031" fill="#feffde" d="M 448.5,49.5 C 449.833,50.1667 449.833,50.1667 448.5,49.5 Z"/></g>
<g><path style="opacity:0.02" fill="#fefffe" d="M 451.5,52.5 C 450.833,51.1667 450.833,51.1667 451.5,52.5 Z"/></g>
<g><path style="opacity:0.11" fill="#feffec" d="M 451.5,52.5 C 452.167,52.5 452.5,52.8333 452.5,53.5C 452.167,53.1667 451.833,52.8333 451.5,52.5 Z"/></g>
<g><path style="opacity:0.078" fill="#fef2f1" d="M 452.5,53.5 C 453.167,53.5 453.5,53.8333 453.5,54.5C 453.167,54.1667 452.833,53.8333 452.5,53.5 Z"/></g>
<g><path style="opacity:0.098" fill="#fee0cb" d="M 453.5,54.5 C 454.167,54.5 454.5,54.8333 454.5,55.5C 454.167,55.1667 453.833,54.8333 453.5,54.5 Z"/></g>
<g><path style="opacity:0.008" fill="#fcefe8" d="M 454.5,55.5 C 456.028,55.5173 456.528,56.184 456,57.5C 455.283,56.9558 454.783,56.2891 454.5,55.5 Z"/></g>
<g><path style="opacity:0.008" fill="#fefffe" d="M 458.5,58.5 C 459.833,59.1667 459.833,59.1667 458.5,58.5 Z"/></g>
<g><path style="opacity:0.157" fill="#f1dfcb" d="M 460.5,61.5 C 459.833,60.1667 459.833,60.1667 460.5,61.5 Z"/></g>
<g><path style="opacity:0.145" fill="#e9e3d5" d="M 460.5,61.5 C 461.167,61.5 461.5,61.8333 461.5,62.5C 461.167,62.1667 460.833,61.8333 460.5,61.5 Z"/></g>
<g><path style="opacity:0.004" fill="#f7f0ed" d="M 461.5,62.5 C 462.833,62.5 463.5,63.1667 463.5,64.5C 462.5,64.1667 461.833,63.5 461.5,62.5 Z"/></g>
<g><path style="opacity:0.012" fill="#fefffe" d="M 463.5,64.5 C 464.167,64.5 464.5,64.8333 464.5,65.5C 464.167,65.1667 463.833,64.8333 463.5,64.5 Z"/></g>
<g><path style="opacity:0.004" fill="#fdf8e8" d="M 464.5,65.5 C 465.833,65.5 466.5,66.1667 466.5,67.5C 465.5,67.1667 464.833,66.5 464.5,65.5 Z"/></g>
<g><path style="opacity:0.031" fill="#feffde" d="M 466.5,67.5 C 467.167,67.5 467.5,67.8333 467.5,68.5C 467.167,68.1667 466.833,67.8333 466.5,67.5 Z"/></g>
<g><path style="opacity:0.012" fill="#fefffe" d="M 467.5,68.5 C 468.167,68.5 468.5,68.8333 468.5,69.5C 468.167,69.1667 467.833,68.8333 467.5,68.5 Z"/></g>
<g><path style="opacity:0.035" fill="#fefffe" d="M 468.5,69.5 C 469.833,70.1667 469.833,70.1667 468.5,69.5 Z"/></g>
<g><path style="opacity:0.078" fill="#fef2f1" d="M 471.5,73.5 C 470.833,72.1667 470.833,72.1667 471.5,73.5 Z"/></g>
<g><path style="opacity:0.161" fill="#feffe5" d="M 471.5,73.5 C 472.167,73.5 472.5,73.8333 472.5,74.5C 472.167,74.1667 471.833,73.8333 471.5,73.5 Z"/></g>
<g><path style="opacity:0.043" fill="#fefffe" d="M 472.5,74.5 C 473.833,75.1667 473.833,75.1667 472.5,74.5 Z"/></g>
<g><path style="opacity:0.133" fill="#efe1d1" d="M 475.5,78.5 C 474.833,77.1667 474.833,77.1667 475.5,78.5 Z"/></g>
<g><path style="opacity:0.051" fill="#feffea" d="M 475.5,78.5 C 476.833,79.1667 476.833,79.1667 475.5,78.5 Z"/></g>
<g><path style="opacity:0.047" fill="#fefffe" d="M 477.5,81.5 C 478.833,82.1667 478.833,82.1667 477.5,81.5 Z"/></g>
<g><path style="opacity:0.012" fill="#fefffe" d="M 479.5,83.5 C 480.833,84.1667 480.833,84.1667 479.5,83.5 Z"/></g>
<g><path style="opacity:0.016" fill="#fefffe" d="M 481.5,86.5 C 480.833,85.1667 480.833,85.1667 481.5,86.5 Z"/></g>
<g><path style="opacity:0.016" fill="#fefffe" d="M 481.5,86.5 C 482.833,87.1667 482.833,87.1667 481.5,86.5 Z"/></g>
<g><path style="opacity:0.016" fill="#fefffe" d="M 482.5,88.5 C 483.833,89.1667 483.833,89.1667 482.5,88.5 Z"/></g>
<g><path style="opacity:0.008" fill="#fefffe" d="M 484.5,91.5 C 485.833,92.1667 485.833,92.1667 484.5,91.5 Z"/></g>
<g><path style="opacity:0.125" fill="#f6dfce" d="M 486.5,94.5 C 485.833,93.1667 485.833,93.1667 486.5,94.5 Z"/></g>
<g><path style="opacity:0.039" fill="#fefffe" d="M 486.5,94.5 C 487.833,95.1667 487.833,95.1667 486.5,94.5 Z"/></g>
<g><path style="opacity:0.063" fill="#feffde" d="M 488.5,98.5 C 489.833,99.1667 489.833,99.1667 488.5,98.5 Z"/></g>
<g><path style="opacity:0.055" fill="#fefffe" d="M 489.5,100.5 C 490.833,101.167 490.833,101.167 489.5,100.5 Z"/></g>
<g><path style="opacity:0.031" fill="#feffde" d="M 492.5,105.5 C 493.833,106.167 493.833,106.167 492.5,105.5 Z"/></g>
<g><path style="opacity:0.031" fill="#feffde" d="M 493.5,107.5 C 494.833,108.167 494.833,108.167 493.5,107.5 Z"/></g>
<g><path style="opacity:0.035" fill="#fefffe" d="M 495.5,111.5 C 494.833,110.167 494.833,110.167 495.5,111.5 Z"/></g>
<g><path style="opacity:0.025" fill="#fefffe" d="M 495.5,111.5 C 496.525,111.897 496.692,112.563 496,113.5C 495.536,112.906 495.369,112.239 495.5,111.5 Z"/></g>
<g><path style="opacity:0.725" fill="#faf2e8" d="M 351.5,8.5 C 348.941,8.19845 346.607,8.53178 344.5,9.5C 328.713,7.81072 313.046,8.64406 297.5,12C 296.667,12.8333 295.833,13.6667 295,14.5C 293.054,14.4121 291.054,14.0788 289,13.5C 282.402,15.2851 275.902,17.2851 269.5,19.5C 269.5,20.5 269.5,21.5 269.5,22.5C 265.873,23.4293 262.207,24.2627 258.5,25C 256.566,26.353 254.733,27.853 253,29.5C 252.439,28.9781 251.772,28.6448 251,28.5C 242.602,32.9487 234.435,37.782 226.5,43C 222.202,49.2979 216.869,54.6312 210.5,59C 210.833,59.3333 211.167,59.6667 211.5,60C 210.451,60.4922 209.451,60.3256 208.5,59.5C 206.851,60.6477 205.351,61.981 204,63.5C 201.763,67.6353 199.263,71.6353 196.5,75.5C 195.609,76.5896 194.609,76.5896 193.5,75.5C 186.66,82.4009 181.994,90.2342 179.5,99C 175.311,104.461 172.311,110.628 170.5,117.5C 168.541,118.748 167.041,120.415 166,122.5C 165.422,125.572 164.255,128.239 162.5,130.5C 164.454,122.244 167.288,114.244 171,106.5C 208.499,38.9706 266.332,5.80392 344.5,7C 347.634,7.11215 349.967,7.61215 351.5,8.5 Z"/></g>
<g><path style="opacity:0.024" fill="#fefffe" d="M 496.5,114.5 C 497.833,115.167 497.833,115.167 496.5,114.5 Z"/></g>
<g><path style="opacity:0.051" fill="#feebea" d="M 498.5,119.5 C 499.833,120.167 499.833,120.167 498.5,119.5 Z"/></g>
<g><path style="opacity:0.063" fill="#feefde" d="M 499.5,121.5 C 500.833,122.167 500.833,122.167 499.5,121.5 Z"/></g>
<g><path style="opacity:0.067" fill="#fff4ea" d="M 500.5,123.5 C 501.525,123.897 501.692,124.563 501,125.5C 500.536,124.906 500.369,124.239 500.5,123.5 Z"/></g>
<g><path style="opacity:0.024" fill="#fefffe" d="M 501.5,127.5 C 502.833,128.167 502.833,128.167 501.5,127.5 Z"/></g>
<g><path style="opacity:0.004" fill="#fefffe" d="M 502.5,130.5 C 503.833,131.167 503.833,131.167 502.5,130.5 Z"/></g>
<g><path style="opacity:0.106" fill="#8d847a" d="M 503.5,133.5 C 502.833,132.167 502.833,132.167 503.5,133.5 Z"/></g>
<g><path style="opacity:0.035" fill="#fefffe" d="M 503.5,133.5 C 504.833,134.167 504.833,134.167 503.5,133.5 Z"/></g>
<g><path style="opacity:0.039" fill="#fefffe" d="M 505.5,140.5 C 506.833,141.167 506.833,141.167 505.5,140.5 Z"/></g>
<g><path style="opacity:0.051" fill="#e1d7c6" d="M 505.5,144.5 C 506.077,143.227 506.743,143.227 507.5,144.5C 507.03,145.463 506.363,145.463 505.5,144.5 Z"/></g>
<g><path style="opacity:0.03" fill="#fefffe" d="M 507.5,146.5 C 508.573,147.251 508.74,148.251 508,149.5C 507.517,148.552 507.351,147.552 507.5,146.5 Z"/></g>
<g><path style="opacity:0.008" fill="#fefffe" d="M 508.5,153.5 C 509.833,154.167 509.833,154.167 508.5,153.5 Z"/></g>
<g><path style="opacity:0.282" fill="#8f867c" d="M 509.5,164.5 C 511.099,165.799 511.599,167.465 511,169.5C 509.731,168.095 509.231,166.429 509.5,164.5 Z"/></g>
<g><path style="opacity:0.667" fill="#fbf2e7" d="M 161.5,131.5 C 162.097,131.735 162.43,132.235 162.5,133C 160.588,138.734 159.088,144.567 158,150.5C 157.75,159.935 156.75,169.268 155,178.5C 153.203,198.373 155.536,217.706 162,236.5C 162.333,235.833 162.667,235.167 163,234.5C 164.052,236.931 164.219,239.265 163.5,241.5C 166.939,246.933 168.606,252.933 168.5,259.5C 166.398,256.069 164.565,252.402 163,248.5C 149.657,209.596 149.157,170.596 161.5,131.5 Z"/></g>
<g><path style="opacity:0.012" fill="#6f6e65" d="M 510.5,182.5 C 511.638,185.304 511.805,188.304 511,191.5C 510.502,188.518 510.335,185.518 510.5,182.5 Z"/></g>
<g><path style="opacity:0.267" fill="#928681" d="M 510.5,204.5 C 511.043,204.56 511.376,204.893 511.5,205.5C 510.902,206.795 510.402,208.128 510,209.5C 509.36,207.735 509.527,206.068 510.5,204.5 Z"/></g>
<g><path style="opacity:0.01" fill="#fefffe" d="M 508.5,218.5 C 509.525,218.897 509.692,219.563 509,220.5C 508.536,219.906 508.369,219.239 508.5,218.5 Z"/></g>
<g><path style="opacity:0.025" fill="#fefffe" d="M 507.5,224.5 C 508.573,225.251 508.74,226.251 508,227.5C 507.517,226.552 507.351,225.552 507.5,224.5 Z"/></g>
<g><path style="opacity:0.024" fill="#fffcf7" d="M 506.5,228.5 C 507.525,228.897 507.692,229.563 507,230.5C 506.536,229.906 506.369,229.239 506.5,228.5 Z"/></g>
<g><path style="opacity:0.035" fill="#fefffe" d="M 505.5,232.5 C 506.833,233.167 506.833,233.167 505.5,232.5 Z"/></g>
<g><path style="opacity:0.027" fill="#fefffe" d="M 503.5,239.5 C 504.833,240.167 504.833,240.167 503.5,239.5 Z"/></g>
<g><path style="opacity:0.024" fill="#fefffe" d="M 501.5,245.5 C 502.833,246.167 502.833,246.167 501.5,245.5 Z"/></g>
<g><path style="opacity:0.972" fill="#fdfdfd" d="M 326.5,246.5 C 350.48,245.981 362.313,257.647 362,281.5C 359.279,294.554 351.446,302.721 338.5,306C 314.491,306.991 302.658,295.491 303,271.5C 305.901,258.434 313.735,250.101 326.5,246.5 Z"/></g>
<g><path style="opacity:0.012" fill="#fffef9" d="M 500.5,248.5 C 501.525,248.897 501.692,249.563 501,250.5C 500.536,249.906 500.369,249.239 500.5,248.5 Z"/></g>
<g><path style="opacity:0.024" fill="#fefffe" d="M 499.5,251.5 C 500.833,252.167 500.833,252.167 499.5,251.5 Z"/></g>
<g><path style="opacity:0.047" fill="#fefffe" d="M 498.5,253.5 C 499.833,254.167 499.833,254.167 498.5,253.5 Z"/></g>
<g><path style="opacity:0.035" fill="#fefffe" d="M 495.5,260.5 C 496.833,261.167 496.833,261.167 495.5,260.5 Z"/></g>
<g><path style="opacity:0.031" fill="#feffde" d="M 494.5,262.5 C 495.833,263.167 495.833,263.167 494.5,262.5 Z"/></g>
<g><path style="opacity:0.012" fill="#fefffe" d="M 493.5,265.5 C 494.833,266.167 494.833,266.167 493.5,265.5 Z"/></g>
<g><path style="opacity:0.027" fill="#fefffe" d="M 492.5,267.5 C 493.833,268.167 493.833,268.167 492.5,267.5 Z"/></g>
<g><path style="opacity:0.027" fill="#fefffe" d="M 492.5,268.5 C 491.833,269.167 491.833,269.167 492.5,268.5 Z"/></g>
<g><path style="opacity:0.012" fill="#fefffe" d="M 489.5,272.5 C 490.833,273.167 490.833,273.167 489.5,272.5 Z"/></g>
<g><path style="opacity:0.035" fill="#fefffe" d="M 488.5,274.5 C 489.833,275.167 489.833,275.167 488.5,274.5 Z"/></g>
<g><path style="opacity:0.016" fill="#fefffe" d="M 486.5,278.5 C 487.833,279.167 487.833,279.167 486.5,278.5 Z"/></g>
<g><path style="opacity:0.063" fill="#feefde" d="M 486.5,279.5 C 485.833,280.167 485.833,280.167 486.5,279.5 Z"/></g>
<g><path style="opacity:0.008" fill="#fefffe" d="M 484.5,281.5 C 485.833,282.167 485.833,282.167 484.5,281.5 Z"/></g>
<g><path style="opacity:0.012" fill="#fefffe" d="M 482.5,284.5 C 483.833,285.167 483.833,285.167 482.5,284.5 Z"/></g>
<g><path style="opacity:0.09" fill="#fefff3" d="M 482.5,285.5 C 481.833,286.167 481.833,286.167 482.5,285.5 Z"/></g>
<g><path style="opacity:0.012" fill="#fefffe" d="M 480.5,287.5 C 481.833,288.167 481.833,288.167 480.5,287.5 Z"/></g>
<g><path style="opacity:0.098" fill="#fee0cb" d="M 480.5,288.5 C 479.833,289.167 479.833,289.167 480.5,288.5 Z"/></g>
<g><path style="opacity:0.035" fill="#fefffe" d="M 477.5,291.5 C 478.833,292.167 478.833,292.167 477.5,291.5 Z"/></g>
<g><path style="opacity:0.043" fill="#fefffe" d="M 475.5,294.5 C 476.833,295.167 476.833,295.167 475.5,294.5 Z"/></g>
<g><path style="opacity:0.055" fill="#fefffe" d="M 475.5,295.5 C 474.833,296.167 474.833,296.167 475.5,295.5 Z"/></g>
<g><path style="opacity:0.039" fill="#fecccb" d="M 474.5,296.5 C 473.833,297.167 473.833,297.167 474.5,296.5 Z"/></g>
<g><path style="opacity:0.043" fill="#fefffe" d="M 472.5,298.5 C 473.833,299.167 473.833,299.167 472.5,298.5 Z"/></g>
<g><path style="opacity:0.067" fill="#fef0e0" d="M 472.5,299.5 C 471.833,300.167 471.833,300.167 472.5,299.5 Z"/></g>
<g><path style="opacity:0.02" fill="#fefffe" d="M 471.5,300.5 C 470.833,301.167 470.833,301.167 471.5,300.5 Z"/></g>
<g><path style="opacity:0.027" fill="#fefffe" d="M 470.5,301.5 C 469.833,302.167 469.833,302.167 470.5,301.5 Z"/></g>
<g><path style="opacity:0.008" fill="#fefffe" d="M 467.5,304.5 C 468.833,305.167 468.833,305.167 467.5,304.5 Z"/></g>
<g><path style="opacity:0.024" fill="#fefffe" d="M 467.5,305.5 C 466.833,306.167 466.833,306.167 467.5,305.5 Z"/></g>
<g><path style="opacity:0.051" fill="#feffea" d="M 466.5,306.5 C 465.833,307.167 465.833,307.167 466.5,306.5 Z"/></g>
<g><path style="opacity:0.047" fill="#fefffe" d="M 465.5,307.5 C 464.833,308.167 464.833,308.167 465.5,307.5 Z"/></g>
<g><path style="opacity:0.008" fill="#fefffe" d="M 464.5,308.5 C 463.833,309.167 463.833,309.167 464.5,308.5 Z"/></g>
<g><path style="opacity:0.031" fill="#fedfde" d="M 463.5,309.5 C 462.833,310.167 462.833,310.167 463.5,309.5 Z"/></g>
<g><path style="opacity:0.098" fill="#fed6cb" d="M 462.5,310.5 C 461.833,311.167 461.833,311.167 462.5,310.5 Z"/></g>
<g><path style="opacity:0.129" fill="#f6d8d7" d="M 461.5,311.5 C 460.833,312.167 460.833,312.167 461.5,311.5 Z"/></g>
<g><path style="opacity:0.133" fill="#e0d2c2" d="M 460.5,312.5 C 459.833,313.167 459.833,313.167 460.5,312.5 Z"/></g>
<g><path style="opacity:0.086" fill="#dbdcc4" d="M 459.5,313.5 C 458.833,314.167 458.833,314.167 459.5,313.5 Z"/></g>
<g><path style="opacity:0.608" fill="#fcf4eb" d="M 232.5,335.5 C 231.448,335.649 230.448,335.483 229.5,335C 214.278,323.61 200.944,310.443 189.5,295.5C 189.435,295.062 189.601,294.728 190,294.5C 193.258,298.764 197.092,302.264 201.5,305C 201.167,305.333 200.833,305.667 200.5,306C 205.772,312.605 211.772,318.605 218.5,324C 221.81,323.771 223.644,325.271 224,328.5C 227.036,330.713 229.869,333.046 232.5,335.5 Z"/></g>
<g><path style="opacity:0.059" fill="#edddcb" d="M 458.5,314.5 C 457.833,315.167 457.833,315.167 458.5,314.5 Z"/></g>
<g><path style="opacity:0.004" fill="#fefffe" d="M 457.5,315.5 C 456.833,316.167 456.833,316.167 457.5,315.5 Z"/></g>
<g><path style="opacity:0.055" fill="#feffc7" d="M 456.5,316.5 C 455.833,317.167 455.833,317.167 456.5,316.5 Z"/></g>
<g><path style="opacity:0.086" fill="#f2dcdb" d="M 455.5,317.5 C 454.833,318.167 454.833,318.167 455.5,317.5 Z"/></g>
<g><path style="opacity:0.094" fill="#f3f4de" d="M 454.5,318.5 C 453.833,319.167 453.833,319.167 454.5,318.5 Z"/></g>
<g><path style="opacity:0.071" fill="#fefff0" d="M 453.5,319.5 C 452.833,320.167 452.833,320.167 453.5,319.5 Z"/></g>
<g><path style="opacity:0.039" fill="#fefffe" d="M 452.5,320.5 C 451.833,321.167 451.833,321.167 452.5,320.5 Z"/></g>
<g><path style="opacity:0.004" fill="#fefffe" d="M 451.5,321.5 C 450.833,322.167 450.833,322.167 451.5,321.5 Z"/></g>
<g><path style="opacity:0.012" fill="#fefffe" d="M 448.5,323.5 C 449.833,324.167 449.833,324.167 448.5,323.5 Z"/></g>
<g><path style="opacity:0.067" fill="#efe1d1" d="M 446.5,324.5 C 447.833,325.167 447.833,325.167 446.5,324.5 Z"/></g>
<g><path style="opacity:0.027" fill="#fefffe" d="M 446.5,325.5 C 445.833,326.167 445.833,326.167 446.5,325.5 Z"/></g>
<g><path style="opacity:0.063" fill="#feefde" d="M 445.5,326.5 C 444.833,327.167 444.833,327.167 445.5,326.5 Z"/></g>
<g><path style="opacity:0.02" fill="#fefffe" d="M 444.5,327.5 C 443.833,328.167 443.833,328.167 444.5,327.5 Z"/></g>
<g><path style="opacity:0.063" fill="#eedfce" d="M 441.5,328.5 C 442.833,329.167 442.833,329.167 441.5,328.5 Z"/></g>
<g><path style="opacity:0.11" fill="#feffec" d="M 441.5,329.5 C 440.833,330.167 440.833,330.167 441.5,329.5 Z"/></g>
<g><path style="opacity:0.016" fill="#fefffe" d="M 440.5,330.5 C 439.833,331.167 439.833,331.167 440.5,330.5 Z"/></g>
<g><path style="opacity:0.051" fill="#eaebea" d="M 437.5,331.5 C 438.833,332.167 438.833,332.167 437.5,331.5 Z"/></g>
<g><path style="opacity:0.055" fill="#fefffe" d="M 437.5,332.5 C 436.833,333.167 436.833,333.167 437.5,332.5 Z"/></g>
<g><path style="opacity:0.02" fill="#fefffe" d="M 436.5,333.5 C 435.833,334.167 435.833,334.167 436.5,333.5 Z"/></g>
<g><path style="opacity:0.004" fill="#fffef4" d="M 435.5,334.5 C 435.103,335.525 434.437,335.692 433.5,335C 434.094,334.536 434.761,334.369 435.5,334.5 Z"/></g>
<g><path style="opacity:0.055" fill="#fefffe" d="M 430.5,336.5 C 431.833,337.167 431.833,337.167 430.5,336.5 Z"/></g>
<g><path style="opacity:0.016" fill="#fefffe" d="M 430.5,337.5 C 429.833,338.167 429.833,338.167 430.5,337.5 Z"/></g>
<g><path style="opacity:0.031" fill="#feffde" d="M 427.5,338.5 C 428.833,339.167 428.833,339.167 427.5,338.5 Z"/></g>
<g><path style="opacity:0.02" fill="#fefffe" d="M 427.5,339.5 C 426.833,340.167 426.833,340.167 427.5,339.5 Z"/></g>
<g><path style="opacity:0.031" fill="#fefffe" d="M 424.5,340.5 C 425.833,341.167 425.833,341.167 424.5,340.5 Z"/></g>
<g><path style="opacity:0.008" fill="#fefffe" d="M 422.5,341.5 C 423.833,342.167 423.833,342.167 422.5,341.5 Z"/></g>
<g><path style="opacity:0.067" fill="#e0d2d1" d="M 420.5,342.5 C 421.833,343.167 421.833,343.167 420.5,342.5 Z"/></g>
<g><path style="opacity:0.02" fill="#fefffe" d="M 420.5,343.5 C 419.833,344.167 419.833,344.167 420.5,343.5 Z"/></g>
<g><path style="opacity:0.02" fill="#fefffe" d="M 417.5,344.5 C 418.833,345.167 418.833,345.167 417.5,344.5 Z"/></g>
<g><path style="opacity:0.02" fill="#fefffe" d="M 415.5,345.5 C 416.833,346.167 416.833,346.167 415.5,345.5 Z"/></g>
<g><path style="opacity:0.063" fill="#feefde" d="M 413.5,346.5 C 414.833,347.167 414.833,347.167 413.5,346.5 Z"/></g>
<g><path style="opacity:0.016" fill="#fff9f4" d="M 413.5,347.5 C 413.103,348.525 412.437,348.692 411.5,348C 412.094,347.536 412.761,347.369 413.5,347.5 Z"/></g>
<g><path style="opacity:0.035" fill="#fefffe" d="M 405.5,350.5 C 406.833,351.167 406.833,351.167 405.5,350.5 Z"/></g>
<g><path style="opacity:0.012" fill="#fefffe" d="M 403.5,351.5 C 404.833,352.167 404.833,352.167 403.5,351.5 Z"/></g>
<g><path style="opacity:0.016" fill="#fefffe" d="M 400.5,352.5 C 401.833,353.167 401.833,353.167 400.5,352.5 Z"/></g>
<g><path style="opacity:0.039" fill="#fefffe" d="M 398.5,353.5 C 399.833,354.167 399.833,354.167 398.5,353.5 Z"/></g>
<g><path style="opacity:0.025" fill="#fefffe" d="M 395.5,355.5 C 395.897,354.475 396.563,354.308 397.5,355C 396.906,355.464 396.239,355.631 395.5,355.5 Z"/></g>
<g><path style="opacity:0.024" fill="#fefffe" d="M 387.5,357.5 C 388.833,358.167 388.833,358.167 387.5,357.5 Z"/></g>
<g><path style="opacity:0.043" fill="#fefffe" d="M 384.5,358.5 C 385.833,359.167 385.833,359.167 384.5,358.5 Z"/></g>
<g><path style="opacity:0.016" fill="#fefffe" d="M 380.5,359.5 C 381.833,360.167 381.833,360.167 380.5,359.5 Z"/></g>
<g><path style="opacity:0.027" fill="#f9f3f3" d="M 376.5,361.5 C 376.897,360.475 377.563,360.308 378.5,361C 377.906,361.464 377.239,361.631 376.5,361.5 Z"/></g>
<g><path style="opacity:0.004" fill="#fefffe" d="M 368.5,361.5 C 369.833,362.167 369.833,362.167 368.5,361.5 Z"/></g>
<g><path style="opacity:0.02" fill="#dad4ce" d="M 357.5,363.5 C 358.773,364.077 358.773,364.743 357.5,365.5C 356.537,365.03 356.537,364.363 357.5,363.5 Z"/></g>
<g><path style="opacity:0.025" fill="#e2d7d3" d="M 348.5,364.5 C 353.662,366.138 353.329,366.638 347.5,366C 348.056,365.617 348.389,365.117 348.5,364.5 Z"/></g>
</svg>
