<?xml version="1.0" encoding="UTF-8"?>
<!DOCTYPE svg PUBLIC "-//W3C//DTD SVG 1.1//EN" "http://www.w3.org/Graphics/SVG/1.1/DTD/svg11.dtd">
<svg xmlns="http://www.w3.org/2000/svg" version="1.1" width="666px" height="375px" style="shape-rendering:geometricPrecision; text-rendering:geometricPrecision; image-rendering:optimizeQuality; fill-rule:evenodd; clip-rule:evenodd" xmlns:xlink="http://www.w3.org/1999/xlink">
<g><path style="opacity:0.024" fill="#fffef5" d="M 344.5,7.5 C 336.16,7.6664 327.827,7.49973 319.5,7C 328.01,6.17678 336.344,6.34345 344.5,7.5 Z"/></g>
<g><path style="opacity:0.025" fill="#fefaf5" d="M 311.5,8.5 C 312.946,7.38705 314.613,7.22039 316.5,8C 315.038,9.62793 313.372,9.7946 311.5,8.5 Z"/></g>
<g><path style="opacity:0.004" fill="#fefffe" d="M 352.5,8.5 C 351.833,7.16667 351.833,7.16667 352.5,8.5 Z"/></g>
<g><path style="opacity:0.02" fill="#fffcf0" d="M 305.5,9.5 C 306.251,8.42654 307.251,8.25988 308.5,9C 307.648,10.7284 306.648,10.895 305.5,9.5 Z"/></g>
<g><path style="opacity:0.329" fill="#a0958b" d="M 344.5,7.5 C 346.5,7.5 348.5,7.5 350.5,7.5C 350.649,8.55198 350.483,9.55198 350,10.5C 347.791,10.0108 345.958,9.01079 344.5,7.5 Z"/></g>
<g><path style="opacity:0.098" fill="#fffaec" d="M 300.5,9.5 C 302.975,9.7467 302.975,10.4134 300.5,11.5C 299.537,11.0302 299.537,10.3635 300.5,9.5 Z"/></g>
<g><path style="opacity:0.872" fill="#4f4843" d="M 352.5,8.5 C 355.144,8.16007 357.477,8.82674 359.5,10.5C 361.598,9.51552 363.598,9.84885 365.5,11.5C 367.62,9.99071 369.287,10.324 370.5,12.5C 368.473,12.3379 366.473,12.5045 364.5,13C 365.056,13.3826 365.389,13.8826 365.5,14.5C 360.863,13.0055 356.197,11.5055 351.5,10C 352.056,9.61742 352.389,9.11742 352.5,8.5 Z"/></g>
<g><path style="opacity:0.014" fill="#fbf7f7" d="M 285.5,13.5 C 286.251,12.4265 287.251,12.2599 288.5,13C 287.552,13.4828 286.552,13.6495 285.5,13.5 Z"/></g>
<g><path style="opacity:0.999" fill="#030303" d="M 370.5,12.5 C 373.466,12.1103 376.132,12.777 378.5,14.5C 379.167,14.1667 379.833,13.8333 380.5,13.5C 381.265,14.6119 382.265,15.2786 383.5,15.5C 385.701,16.5664 388.035,17.233 390.5,17.5C 392.936,18.871 395.603,19.871 398.5,20.5C 400.383,19.958 402.049,20.6247 403.5,22.5C 404.209,23.404 405.209,23.7373 406.5,23.5C 407.995,23.9887 409.329,24.6554 410.5,25.5C 411.514,26.6737 412.847,27.3404 414.5,27.5C 415.514,28.6737 416.847,29.3404 418.5,29.5C 419.868,31.779 421.702,32.4457 424,31.5C 424.236,33.1193 425.069,34.1193 426.5,34.5C 427.899,35.8897 429.566,36.8897 431.5,37.5C 432.222,38.5511 433.222,39.2178 434.5,39.5C 434.973,40.9063 435.973,41.573 437.5,41.5C 437.833,42.5 438.5,43.1667 439.5,43.5C 442.259,43.9333 443.592,45.6 443.5,48.5C 444.5,48.5 445.5,48.5 446.5,48.5C 447.167,49.8333 448.167,50.8333 449.5,51.5C 449.933,54.2589 451.6,55.5922 454.5,55.5C 454.833,56.5 455.5,57.1667 456.5,57.5C 457.167,57.5 457.5,57.8333 457.5,58.5C 457.833,59.5 458.5,60.1667 459.5,60.5C 460.5,60.8333 461.167,61.5 461.5,62.5C 461.833,63.5 462.5,64.1667 463.5,64.5C 463.5,65.8333 464.167,66.5 465.5,66.5C 465.328,67.4916 465.662,68.1583 466.5,68.5C 467.167,69.8333 468.167,70.8333 469.5,71.5C 470.434,72.5676 470.768,73.901 470.5,75.5C 471.822,75.33 472.989,75.6634 474,76.5C 475.726,78.5912 476.893,80.9245 477.5,83.5C 478.552,83.3505 479.552,83.5172 480.5,84C 479.226,84.9772 479.226,85.8106 480.5,86.5C 480.833,87.5 481.5,88.1667 482.5,88.5C 483.975,91.5525 485.642,94.5525 487.5,97.5C 488.413,99.0861 488.413,100.586 487.5,102C 488.244,103.039 489.244,103.539 490.5,103.5C 491.563,105.956 492.896,108.289 494.5,110.5C 494.66,112.153 495.326,113.486 496.5,114.5C 497.909,116.946 498.909,119.612 499.5,122.5C 499.875,124.698 500.542,126.698 501.5,128.5C 501.577,129.75 502.244,130.583 503.5,131C 503.043,131.414 502.709,131.914 502.5,132.5C 503.778,137.394 505.445,142.061 507.5,146.5C 506.957,146.56 506.624,146.893 506.5,147.5C 508.691,149.208 509.024,151.208 507.5,153.5C 509.636,154.852 509.97,156.518 508.5,158.5C 510.531,160.249 510.865,162.249 509.5,164.5C 511.013,166.535 511.679,168.869 511.5,171.5C 511.463,181.669 511.463,191.835 511.5,202C 511.589,204.713 510.922,207.213 509.5,209.5C 510.484,211.598 510.151,213.598 508.5,215.5C 508.931,216.293 509.265,217.127 509.5,218C 508.571,219.077 507.904,220.244 507.5,221.5C 507.567,222.959 507.234,224.292 506.5,225.5C 506.328,226.492 506.662,227.158 507.5,227.5C 506.833,228.833 506.167,230.167 505.5,231.5C 504.699,233.042 504.366,234.708 504.5,236.5C 503.791,239.653 502.791,242.986 501.5,246.5C 500.463,247.93 499.796,249.597 499.5,251.5C 498.226,252.189 498.226,253.023 499.5,254C 497.349,258.626 495.016,263.126 492.5,267.5C 491.662,267.842 491.328,268.508 491.5,269.5C 490.9,272.349 489.567,274.682 487.5,276.5C 486.326,277.514 485.66,278.847 485.5,280.5C 484.5,280.833 483.833,281.5 483.5,282.5C 483.649,283.552 483.483,284.552 483,285.5C 479.382,289.098 476.382,293.098 474,297.5C 472.667,298.167 471.333,298.833 470,299.5C 469.79,301.058 469.29,302.391 468.5,303.5C 467.167,304.167 466.167,305.167 465.5,306.5C 464.025,308.007 462.691,309.673 461.5,311.5C 460.127,311.343 458.793,311.51 457.5,312C 456.449,313.385 455.116,314.385 453.5,315C 454.337,316.011 454.67,317.178 454.5,318.5C 452.821,318.285 451.821,318.952 451.5,320.5C 450.5,320.833 449.833,321.5 449.5,322.5C 448.5,322.833 447.833,323.5 447.5,324.5C 445.821,324.285 444.821,324.952 444.5,326.5C 443.5,326.833 442.833,327.5 442.5,328.5C 440.3,329.862 438.3,331.529 436.5,333.5C 434.847,333.66 433.514,334.326 432.5,335.5C 431.5,336.167 430.5,336.833 429.5,337.5C 427.517,337.157 426.183,337.824 425.5,339.5C 424.733,340.172 424.066,341.005 423.5,342C 420.588,343.631 417.588,345.131 414.5,346.5C 412.847,346.66 411.514,347.326 410.5,348.5C 408.408,348.561 406.908,349.561 406,351.5C 405.586,351.043 405.086,350.709 404.5,350.5C 403.481,351.687 402.314,352.687 401,353.5C 400.023,352.226 399.189,352.226 398.5,353.5C 397.391,353.557 396.391,353.89 395.5,354.5C 393.597,354.796 391.93,355.463 390.5,356.5C 389.041,356.433 387.708,356.766 386.5,357.5C 385.508,357.328 384.842,357.662 384.5,358.5C 382.708,358.366 381.042,358.699 379.5,359.5C 373.688,361.587 367.688,363.254 361.5,364.5C 360.833,364.167 360.167,363.833 359.5,363.5C 357.129,365.773 354.462,366.106 351.5,364.5C 346.112,365.736 340.612,366.403 335,366.5C 329.328,366.402 323.828,365.735 318.5,364.5C 316.833,364.5 315.167,364.5 313.5,364.5C 269.458,351.812 245.792,322.478 242.5,276.5C 245.496,233.022 267.496,204.189 308.5,190C 322.382,187.392 336.382,185.725 350.5,185C 390.543,174.75 414.043,149.25 421,108.5C 423.76,64.322 405.26,32.9887 365.5,14.5C 365.389,13.8826 365.056,13.3826 364.5,13C 366.473,12.5045 368.473,12.3379 370.5,12.5 Z M 328.5,246.5 C 348.273,246.94 359.606,256.94 362.5,276.5C 359.05,298.465 346.383,307.965 324.5,305C 307.644,298.454 300.811,286.288 304,268.5C 308.286,256.708 316.453,249.374 328.5,246.5 Z"/></g>
<g><path style="opacity:0.088" fill="#ffead9" d="M 281.5,14.5 C 282.251,13.4265 283.251,13.2599 284.5,14C 283.648,15.7284 282.648,15.895 281.5,14.5 Z"/></g>
<g><path style="opacity:0.008" fill="#fefffe" d="M 383.5,14.5 C 382.833,13.1667 382.833,13.1667 383.5,14.5 Z"/></g>
<g><path style="opacity:0.114" fill="#f3f2ca" d="M 278.5,15.5 C 278.897,14.475 279.563,14.3083 280.5,15C 279.906,15.4643 279.239,15.631 278.5,15.5 Z"/></g>
<g><path style="opacity:0.043" fill="#fefffe" d="M 276.5,15.5 C 277.833,16.1667 277.833,16.1667 276.5,15.5 Z"/></g>
<g><path style="opacity:0.412" fill="#c3baae" d="M 383.5,15.5 C 383.5,15.1667 383.5,14.8333 383.5,14.5C 386.241,14.7073 388.574,15.7073 390.5,17.5C 388.035,17.233 385.701,16.5664 383.5,15.5 Z"/></g>
<g><path style="opacity:0.004" fill="#fefffe" d="M 273.5,16.5 C 274.833,17.1667 274.833,17.1667 273.5,16.5 Z"/></g>
<g><path style="opacity:0.004" fill="#d1c9bf" d="M 390.5,17.5 C 393.716,17.3455 396.383,18.3455 398.5,20.5C 395.603,19.871 392.936,18.871 390.5,17.5 Z"/></g>
<g><path style="opacity:0.016" fill="#fefffe" d="M 267.5,18.5 C 268.833,19.1667 268.833,19.1667 267.5,18.5 Z"/></g>
<g><path style="opacity:0.025" fill="#fefffe" d="M 264.5,20.5 C 264.897,19.475 265.563,19.3083 266.5,20C 265.906,20.4643 265.239,20.631 264.5,20.5 Z"/></g>
<g><path style="opacity:0.024" fill="#fbf9f3" d="M 261.5,21.5 C 262.209,20.596 263.209,20.2627 264.5,20.5C 263.791,21.404 262.791,21.7373 261.5,21.5 Z"/></g>
<g><path style="opacity:0.008" fill="#fefffe" d="M 403.5,21.5 C 402.833,20.1667 402.833,20.1667 403.5,21.5 Z"/></g>
<g><path style="opacity:0.102" fill="#f4ebe1" d="M 261.5,21.5 C 260.833,22.1667 260.833,22.1667 261.5,21.5 Z"/></g>
<g><path style="opacity:0.047" fill="#fefffe" d="M 258.5,22.5 C 259.833,23.1667 259.833,23.1667 258.5,22.5 Z"/></g>
<g><path style="opacity:0.616" fill="#bcb5a4" d="M 403.5,21.5 C 404.71,21.9321 405.71,22.5987 406.5,23.5C 405.209,23.7373 404.209,23.404 403.5,22.5C 403.5,22.1667 403.5,21.8333 403.5,21.5 Z"/></g>
<g><path style="opacity:0.035" fill="#fefffe" d="M 256.5,23.5 C 257.833,24.1667 257.833,24.1667 256.5,23.5 Z"/></g>
<g><path style="opacity:0.02" fill="#feffcb" d="M 251.5,25.5 C 252.833,26.1667 252.833,26.1667 251.5,25.5 Z"/></g>
<g><path style="opacity:0.075" fill="#e2ded0" d="M 410.5,25.5 C 412.38,25.2291 413.713,25.8958 414.5,27.5C 412.847,27.3404 411.514,26.6737 410.5,25.5 Z"/></g>
<g><path style="opacity:0.122" fill="#ffe8e8" d="M 249.5,27.5 C 249.842,26.6618 250.508,26.3284 251.5,26.5C 251.158,27.3382 250.492,27.6716 249.5,27.5 Z"/></g>
<g><path style="opacity:0.137" fill="#f5f0e1" d="M 247.5,28.5 C 247.842,27.6618 248.508,27.3284 249.5,27.5C 249.158,28.3382 248.492,28.6716 247.5,28.5 Z"/></g>
<g><path style="opacity:0.141" fill="#e6ded1" d="M 414.5,27.5 C 416.38,27.2291 417.713,27.8958 418.5,29.5C 416.847,29.3404 415.514,28.6737 414.5,27.5 Z"/></g>
<g><path style="opacity:0.149" fill="#f7ddcf" d="M 247.5,28.5 C 246.833,29.1667 246.833,29.1667 247.5,28.5 Z"/></g>
<g><path style="opacity:0.039" fill="#feffcb" d="M 244.5,29.5 C 245.833,30.1667 245.833,30.1667 244.5,29.5 Z"/></g>
<g><path style="opacity:0.008" fill="#fefffe" d="M 242.5,30.5 C 243.833,31.1667 243.833,31.1667 242.5,30.5 Z"/></g>
<g><path style="opacity:0.008" fill="#fefffe" d="M 240.5,31.5 C 241.833,32.1667 241.833,32.1667 240.5,31.5 Z"/></g>
<g><path style="opacity:0.082" fill="#fff6de" d="M 238.5,33.5 C 238.842,32.6618 239.508,32.3284 240.5,32.5C 240.158,33.3382 239.492,33.6716 238.5,33.5 Z"/></g>
<g><path style="opacity:0.031" fill="#fedfde" d="M 238.5,33.5 C 237.833,34.1667 237.833,34.1667 238.5,33.5 Z"/></g>
<g><path style="opacity:0.024" fill="#fefffe" d="M 235.5,34.5 C 236.833,35.1667 236.833,35.1667 235.5,34.5 Z"/></g>
<g><path style="opacity:0.012" fill="#d9d1cb" d="M 431.5,37.5 C 429.566,36.8897 427.899,35.8897 426.5,34.5C 428.595,34.0633 430.262,35.0633 431.5,37.5 Z"/></g>
<g><path style="opacity:0.082" fill="#feffcd" d="M 235.5,35.5 C 234.833,36.1667 234.833,36.1667 235.5,35.5 Z"/></g>
<g><path style="opacity:0.004" fill="#fefffe" d="M 434.5,38.5 C 433.833,37.1667 433.833,37.1667 434.5,38.5 Z"/></g>
<g><path style="opacity:0.02" fill="#feffcb" d="M 229.5,38.5 C 230.833,39.1667 230.833,39.1667 229.5,38.5 Z"/></g>
<g><path style="opacity:0.051" fill="#eaebea" d="M 229.5,39.5 C 228.833,40.1667 228.833,40.1667 229.5,39.5 Z"/></g>
<g><path style="opacity:0.294" fill="#dcd5ca" d="M 434.5,38.5 C 435.833,39.1667 436.833,40.1667 437.5,41.5C 435.973,41.573 434.973,40.9063 434.5,39.5C 434.5,39.1667 434.5,38.8333 434.5,38.5 Z"/></g>
<g><path style="opacity:0.075" fill="#fee4e3" d="M 228.5,40.5 C 227.833,41.1667 227.833,41.1667 228.5,40.5 Z"/></g>
<g><path style="opacity:0.027" fill="#fefffe" d="M 225.5,41.5 C 226.833,42.1667 226.833,42.1667 225.5,41.5 Z"/></g>
<g><path style="opacity:0.004" fill="#e6e0da" d="M 437.5,41.5 C 438.833,41.5 439.5,42.1667 439.5,43.5C 438.5,43.1667 437.833,42.5 437.5,41.5 Z"/></g>
<g><path style="opacity:0.063" fill="#eedfce" d="M 225.5,42.5 C 224.833,43.1667 224.833,43.1667 225.5,42.5 Z"/></g>
<g><path style="opacity:0.118" fill="#eddddc" d="M 224.5,43.5 C 223.833,44.1667 223.833,44.1667 224.5,43.5 Z"/></g>
<g><path style="opacity:0.004" fill="#fefffe" d="M 221.5,44.5 C 222.833,45.1667 222.833,45.1667 221.5,44.5 Z"/></g>
<g><path style="opacity:0.055" fill="#fefffe" d="M 221.5,45.5 C 220.833,46.1667 220.833,46.1667 221.5,45.5 Z"/></g>
<g><path style="opacity:0.137" fill="#efe9d2" d="M 220.5,46.5 C 219.833,47.1667 219.833,47.1667 220.5,46.5 Z"/></g>
<g><path style="opacity:0.129" fill="#f6e0d7" d="M 219.5,47.5 C 218.833,48.1667 218.833,48.1667 219.5,47.5 Z"/></g>
<g><path style="opacity:0.02" fill="#feffcb" d="M 216.5,48.5 C 217.833,49.1667 217.833,49.1667 216.5,48.5 Z"/></g>
<g><path style="opacity:0.027" fill="#e8e0d7" d="M 446.5,48.5 C 448.5,48.5 449.5,49.5 449.5,51.5C 448.167,50.8333 447.167,49.8333 446.5,48.5 Z"/></g>
<g><path style="opacity:0.059" fill="#edddcb" d="M 216.5,49.5 C 215.833,50.1667 215.833,50.1667 216.5,49.5 Z"/></g>
<g><path style="opacity:0.016" fill="#fefffe" d="M 215.5,50.5 C 214.833,51.1667 214.833,51.1667 215.5,50.5 Z"/></g>
<g><path style="opacity:0.02" fill="#fefffe" d="M 214.5,51.5 C 213.833,52.1667 213.833,52.1667 214.5,51.5 Z"/></g>
<g><path style="opacity:0.149" fill="#fdefe7" d="M 213.5,52.5 C 212.738,54.2624 211.404,55.2624 209.5,55.5C 210.262,53.7376 211.596,52.7376 213.5,52.5 Z"/></g>
<g><path style="opacity:0.012" fill="#fefffe" d="M 209.5,55.5 C 208.833,56.1667 208.833,56.1667 209.5,55.5 Z"/></g>
<g><path style="opacity:0.008" fill="#fcefe8" d="M 454.5,55.5 C 455.833,55.5 456.5,56.1667 456.5,57.5C 455.5,57.1667 454.833,56.5 454.5,55.5 Z"/></g>
<g><path style="opacity:0.016" fill="#fefffe" d="M 205.5,58.5 C 206.833,59.1667 206.833,59.1667 205.5,58.5 Z"/></g>
<g><path style="opacity:0.008" fill="#f8f1e4" d="M 457.5,58.5 C 458.833,58.5 459.5,59.1667 459.5,60.5C 458.5,60.1667 457.833,59.5 457.5,58.5 Z"/></g>
<g><path style="opacity:0.024" fill="#fefffe" d="M 205.5,59.5 C 204.833,60.1667 204.833,60.1667 205.5,59.5 Z"/></g>
<g><path style="opacity:0.184" fill="#f9f3eb" d="M 204.5,60.5 C 204.5,61.8333 203.833,62.5 202.5,62.5C 202.833,61.5 203.5,60.8333 204.5,60.5 Z"/></g>
<g><path style="opacity:0.008" fill="#fefffe" d="M 202.5,62.5 C 201.833,63.1667 201.833,63.1667 202.5,62.5 Z"/></g>
<g><path style="opacity:0.004" fill="#f7f0ed" d="M 461.5,62.5 C 462.833,62.5 463.5,63.1667 463.5,64.5C 462.5,64.1667 461.833,63.5 461.5,62.5 Z"/></g>
<g><path style="opacity:0.055" fill="#fefffe" d="M 200.5,64.5 C 201.833,65.1667 201.833,65.1667 200.5,64.5 Z"/></g>
<g><path style="opacity:0.997" fill="#0a0a0a" d="M 330.5,64.5 C 350.896,66.2286 362.562,77.2286 365.5,97.5C 363.492,117.508 352.492,128.508 332.5,130.5C 312.508,128.508 301.508,117.508 299.5,97.5C 302.024,78.9803 312.358,67.9803 330.5,64.5 Z"/></g>
<g><path style="opacity:0.004" fill="#dbd8ca" d="M 463.5,64.5 C 464.473,64.9867 465.473,65.4867 466.5,66C 466.272,66.3988 465.938,66.5654 465.5,66.5C 464.167,66.5 463.5,65.8333 463.5,64.5 Z"/></g>
<g><path style="opacity:0.106" fill="#faefe2" d="M 200.5,65.5 C 199.833,66.8333 198.833,67.8333 197.5,68.5C 197.5,66.5 198.5,65.5 200.5,65.5 Z"/></g>
<g><path style="opacity:0.031" fill="#fedfde" d="M 197.5,68.5 C 196.833,69.1667 196.833,69.1667 197.5,68.5 Z"/></g>
<g><path style="opacity:0.012" fill="#d9d1cd" d="M 466.5,68.5 C 468.5,68.5 469.5,69.5 469.5,71.5C 468.167,70.8333 467.167,69.8333 466.5,68.5 Z"/></g>
<g><path style="opacity:0.031" fill="#fedfde" d="M 196.5,69.5 C 195.833,70.1667 195.833,70.1667 196.5,69.5 Z"/></g>
<g><path style="opacity:0.004" fill="#fefffe" d="M 195.5,70.5 C 194.833,71.1667 194.833,71.1667 195.5,70.5 Z"/></g>
<g><path style="opacity:0.094" fill="#f3f4de" d="M 193.5,72.5 C 194.833,73.1667 194.833,73.1667 193.5,72.5 Z"/></g>
<g><path style="opacity:0.145" fill="#f0e3dc" d="M 193.5,73.5 C 192.833,74.1667 192.833,74.1667 193.5,73.5 Z"/></g>
<g><path style="opacity:0.11" fill="#feedd0" d="M 192.5,74.5 C 191.833,75.1667 191.833,75.1667 192.5,74.5 Z"/></g>
<g><path style="opacity:0.027" fill="#fefffe" d="M 191.5,75.5 C 190.833,76.1667 190.833,76.1667 191.5,75.5 Z"/></g>
<g><path style="opacity:0.122" fill="#ffeee8" d="M 190.5,76.5 C 190.672,77.4916 190.338,78.1583 189.5,78.5C 189.328,77.5084 189.662,76.8417 190.5,76.5 Z"/></g>
<g><path style="opacity:0.063" fill="#eedfce" d="M 189.5,78.5 C 188.833,79.1667 188.833,79.1667 189.5,78.5 Z"/></g>
<g><path style="opacity:0.02" fill="#feffcb" d="M 188.5,79.5 C 187.833,80.1667 187.833,80.1667 188.5,79.5 Z"/></g>
<g><path style="opacity:0.067" fill="#efe1d1" d="M 186.5,81.5 C 187.833,82.1667 187.833,82.1667 186.5,81.5 Z"/></g>
<g><path style="opacity:0.031" fill="#fedfde" d="M 186.5,82.5 C 185.833,83.1667 185.833,83.1667 186.5,82.5 Z"/></g>
<g><path style="opacity:0.024" fill="#fefffe" d="M 185.5,83.5 C 184.833,84.1667 184.833,84.1667 185.5,83.5 Z"/></g>
<g><path style="opacity:0.086" fill="#f2f3db" d="M 183.5,85.5 C 184.833,86.1667 184.833,86.1667 183.5,85.5 Z"/></g>
<g><path style="opacity:0.02" fill="#feffcb" d="M 183.5,86.5 C 182.833,87.1667 182.833,87.1667 183.5,86.5 Z"/></g>
<g><path style="opacity:0.016" fill="#ebdfd6" d="M 480.5,86.5 C 481.833,86.5 482.5,87.1667 482.5,88.5C 481.5,88.1667 480.833,87.5 480.5,86.5 Z"/></g>
<g><path style="opacity:0.016" fill="#fefffe" d="M 179.5,91.5 C 180.833,92.1667 180.833,92.1667 179.5,91.5 Z"/></g>
<g><path style="opacity:0.145" fill="#f5ecec" d="M 179.5,92.5 C 179.672,93.4916 179.338,94.1583 178.5,94.5C 178.328,93.5084 178.662,92.8417 179.5,92.5 Z"/></g>
<g><path style="opacity:0.09" fill="#fef4e8" d="M 178.5,94.5 C 177.833,95.1667 177.833,95.1667 178.5,94.5 Z"/></g>
<g><path style="opacity:0.059" fill="#f3f3e8" d="M 177.5,95.5 C 177.672,96.4916 177.338,97.1583 176.5,97.5C 176.328,96.5084 176.662,95.8417 177.5,95.5 Z"/></g>
<g><path style="opacity:0.067" fill="#f5eae0" d="M 176.5,97.5 C 176.631,98.2389 176.464,98.9056 176,99.5C 175.308,98.5632 175.475,97.8966 176.5,97.5 Z"/></g>
<g><path style="opacity:0.012" fill="#fefffe" d="M 173.5,101.5 C 174.833,102.167 174.833,102.167 173.5,101.5 Z"/></g>
<g><path style="opacity:0.99" fill="#59524a" d="M 487.5,97.5 C 489.539,98.911 490.539,100.911 490.5,103.5C 489.244,103.539 488.244,103.039 487.5,102C 488.413,100.586 488.413,99.0861 487.5,97.5 Z"/></g>
<g><path style="opacity:0.039" fill="#feffcb" d="M 171.5,105.5 C 172.833,106.167 172.833,106.167 171.5,105.5 Z"/></g>
<g><path style="opacity:0.082" fill="#fff6de" d="M 171.5,106.5 C 171.672,107.492 171.338,108.158 170.5,108.5C 170.328,107.508 170.662,106.842 171.5,106.5 Z"/></g>
<g><path style="opacity:0.024" fill="#fefffe" d="M 170.5,108.5 C 170.631,109.239 170.464,109.906 170,110.5C 169.308,109.563 169.475,108.897 170.5,108.5 Z"/></g>
<g><path style="opacity:0.004" fill="#fefffe" d="M 168.5,111.5 C 169.833,112.167 169.833,112.167 168.5,111.5 Z"/></g>
<g><path style="opacity:0.025" fill="#dfdbd7" d="M 494.5,110.5 C 496.104,111.287 496.771,112.62 496.5,114.5C 495.326,113.486 494.66,112.153 494.5,110.5 Z"/></g>
<g><path style="opacity:0.09" fill="#fff7f0" d="M 165.5,120.5 C 165.369,119.761 165.536,119.094 166,118.5C 166.692,119.437 166.525,120.103 165.5,120.5 Z"/></g>
<g><path style="opacity:0.071" fill="#fffef5" d="M 165.5,120.5 C 165.631,121.239 165.464,121.906 165,122.5C 164.308,121.563 164.475,120.897 165.5,120.5 Z"/></g>
<g><path style="opacity:0.047" fill="#fefffe" d="M 163.5,123.5 C 164.833,124.167 164.833,124.167 163.5,123.5 Z"/></g>
<g><path style="opacity:0.067" fill="#cabdb3" d="M 499.5,122.5 C 500.117,122.611 500.617,122.944 501,123.5C 501.273,125.101 501.773,126.601 502.5,128C 502.272,128.399 501.938,128.565 501.5,128.5C 500.542,126.698 499.875,124.698 499.5,122.5 Z"/></g>
<g><path style="opacity:0.035" fill="#fcf8de" d="M 162.5,125.5 C 164.76,126.238 164.927,127.238 163,128.5C 162.517,127.552 162.351,126.552 162.5,125.5 Z"/></g>
<g><path style="opacity:0.008" fill="#fefffe" d="M 160.5,132.5 C 161.833,133.167 161.833,133.167 160.5,132.5 Z"/></g>
<g><path style="opacity:0.016" fill="#fefffe" d="M 159.5,135.5 C 160.833,136.167 160.833,136.167 159.5,135.5 Z"/></g>
<g><path style="opacity:0.059" fill="#f5e9de" d="M 158.5,139.5 C 160.76,140.238 160.927,141.238 159,142.5C 158.517,141.552 158.351,140.552 158.5,139.5 Z"/></g>
<g><path style="opacity:0.141" fill="#fff0ec" d="M 157.5,145.5 C 157.369,144.761 157.536,144.094 158,143.5C 158.692,144.437 158.525,145.103 157.5,145.5 Z"/></g>
<g><path style="opacity:0.031" fill="#fcebe2" d="M 157.5,145.5 C 157.649,146.552 157.483,147.552 157,148.5C 156.26,147.251 156.427,146.251 157.5,145.5 Z"/></g>
<g><path style="opacity:0.008" fill="#fefffe" d="M 507.5,146.5 C 508.833,147.167 508.833,147.167 507.5,146.5 Z"/></g>
<g><path style="opacity:0.014" fill="#fffcfa" d="M 155.5,150.5 C 157.368,151.786 157.534,153.119 156,154.5C 155.51,153.207 155.343,151.873 155.5,150.5 Z"/></g>
<g><path style="opacity:0.008" fill="#fefffe" d="M 154.5,159.5 C 155.833,160.167 155.833,160.167 154.5,159.5 Z"/></g>
<g><path style="opacity:0.059" fill="#feeeed" d="M 154.5,164.5 C 155.833,165.167 155.833,165.167 154.5,164.5 Z"/></g>
<g><path style="opacity:0.016" fill="#fefffe" d="M 154.5,165.5 C 153.833,166.167 153.833,166.167 154.5,165.5 Z"/></g>
<g><path style="opacity:0.18" fill="#fbf1e1" d="M 152.5,171.5 C 153.117,171.611 153.617,171.944 154,172.5C 154.89,175.706 154.557,178.706 153,181.5C 152.502,178.183 152.335,174.85 152.5,171.5 Z"/></g>
<g><path style="opacity:0.149" fill="#fdf1e1" d="M 152.5,191.5 C 153.117,191.611 153.617,191.944 154,192.5C 154.821,195.554 154.655,198.554 153.5,201.5C 152.513,198.232 152.18,194.898 152.5,191.5 Z"/></g>
<g><path style="opacity:0.012" fill="#fefffe" d="M 154.5,208.5 C 153.833,207.167 153.833,207.167 154.5,208.5 Z"/></g>
<g><path style="opacity:0.024" fill="#fefffe" d="M 154.5,208.5 C 155.833,209.167 155.833,209.167 154.5,208.5 Z"/></g>
<g><path style="opacity:0.004" fill="#fefffe" d="M 154.5,213.5 C 155.833,214.167 155.833,214.167 154.5,213.5 Z"/></g>
<g><path style="opacity:0.013" fill="#fffef4" d="M 155.5,219.5 C 157.76,220.238 157.927,221.238 156,222.5C 155.517,221.552 155.351,220.552 155.5,219.5 Z"/></g>
<g><path style="opacity:0.047" fill="#d4cecd" d="M 507.5,221.5 C 508.124,221.917 508.457,222.584 508.5,223.5C 508.253,224.713 507.586,225.38 506.5,225.5C 507.234,224.292 507.567,222.959 507.5,221.5 Z"/></g>
<g><path style="opacity:0.02" fill="#faf4ce" d="M 156.5,225.5 C 157.525,225.897 157.692,226.563 157,227.5C 156.536,226.906 156.369,226.239 156.5,225.5 Z"/></g>
<g><path style="opacity:0.004" fill="#fefffe" d="M 507.5,226.5 C 508.833,227.167 508.833,227.167 507.5,226.5 Z"/></g>
<g><path style="opacity:0.031" fill="#fadfda" d="M 157.5,228.5 C 158.525,228.897 158.692,229.563 158,230.5C 157.536,229.906 157.369,229.239 157.5,228.5 Z"/></g>
<g><path style="opacity:0.025" fill="#fdf8f2" d="M 158.5,231.5 C 160.76,232.238 160.927,233.238 159,234.5C 158.517,233.552 158.351,232.552 158.5,231.5 Z"/></g>
<g><path style="opacity:0.314" fill="#afa59b" d="M 505.5,231.5 C 506.043,231.56 506.376,231.893 506.5,232.5C 506.006,234.026 505.339,235.359 504.5,236.5C 504.366,234.708 504.699,233.042 505.5,231.5 Z"/></g>
<g><path style="opacity:0.008" fill="#faf6f3" d="M 159.5,236.5 C 160.289,236.783 160.956,237.283 161.5,238C 160.184,238.528 159.517,238.028 159.5,236.5 Z"/></g>
<g><path style="opacity:0.004" fill="#fefffe" d="M 160.5,240.5 C 161.833,241.167 161.833,241.167 160.5,240.5 Z"/></g>
<g><path style="opacity:0.027" fill="#fefffe" d="M 162.5,245.5 C 163.573,246.251 163.74,247.251 163,248.5C 162.517,247.552 162.351,246.552 162.5,245.5 Z"/></g>
<g><path style="opacity:0.024" fill="#fefffe" d="M 163.5,249.5 C 164.833,250.167 164.833,250.167 163.5,249.5 Z"/></g>
<g><path style="opacity:0.012" fill="#e4ded4" d="M 501.5,246.5 C 501.88,248.698 501.213,250.365 499.5,251.5C 499.796,249.597 500.463,247.93 501.5,246.5 Z"/></g>
<g><path style="opacity:0.024" fill="#fefffe" d="M 164.5,251.5 C 165.833,252.167 165.833,252.167 164.5,251.5 Z"/></g>
<g><path style="opacity:0.004" fill="#f9f9f3" d="M 165.5,253.5 C 166.525,253.897 166.692,254.563 166,255.5C 165.536,254.906 165.369,254.239 165.5,253.5 Z"/></g>
<g><path style="opacity:0.016" fill="#fefffe" d="M 166.5,256.5 C 167.833,257.167 167.833,257.167 166.5,256.5 Z"/></g>
<g><path style="opacity:0.031" fill="#fedfde" d="M 167.5,258.5 C 168.833,259.167 168.833,259.167 167.5,258.5 Z"/></g>
<g><path style="opacity:0.022" fill="#fefffe" d="M 169.5,262.5 C 168.475,262.103 168.308,261.437 169,260.5C 169.464,261.094 169.631,261.761 169.5,262.5 Z"/></g>
<g><path style="opacity:0.02" fill="#fffed9" d="M 169.5,262.5 C 170.525,262.897 170.692,263.563 170,264.5C 169.536,263.906 169.369,263.239 169.5,262.5 Z"/></g>
<g><path style="opacity:0.039" fill="#feffcb" d="M 170.5,265.5 C 171.833,266.167 171.833,266.167 170.5,265.5 Z"/></g>
<g><path style="opacity:0.024" fill="#fefffe" d="M 172.5,268.5 C 171.833,267.167 171.833,267.167 172.5,268.5 Z"/></g>
<g><path style="opacity:0.027" fill="#e4dfdb" d="M 492.5,267.5 C 493.439,268.327 493.105,268.994 491.5,269.5C 491.328,268.508 491.662,267.842 492.5,267.5 Z"/></g>
<g><path style="opacity:0.071" fill="#fefff0" d="M 172.5,268.5 C 173.833,269.167 173.833,269.167 172.5,268.5 Z"/></g>
<g><path style="opacity:0.039" fill="#feffcb" d="M 174.5,272.5 C 175.833,273.167 175.833,273.167 174.5,272.5 Z"/></g>
<g><path style="opacity:0.043" fill="#fefffe" d="M 175.5,274.5 C 176.833,275.167 176.833,275.167 175.5,274.5 Z"/></g>
<g><path style="opacity:0.035" fill="#fefffe" d="M 176.5,276.5 C 177.833,277.167 177.833,277.167 176.5,276.5 Z"/></g>
<g><path style="opacity:0.027" fill="#fefffe" d="M 178.5,279.5 C 177.833,278.167 177.833,278.167 178.5,279.5 Z"/></g>
<g><path style="opacity:0.063" fill="#eedfce" d="M 178.5,279.5 C 179.833,280.167 179.833,280.167 178.5,279.5 Z"/></g>
<g><path style="opacity:0.063" fill="#e0d3c6" d="M 487.5,276.5 C 487.771,278.38 487.104,279.713 485.5,280.5C 485.66,278.847 486.326,277.514 487.5,276.5 Z"/></g>
<g><path style="opacity:0.008" fill="#fefffe" d="M 179.5,281.5 C 180.833,282.167 180.833,282.167 179.5,281.5 Z"/></g>
<g><path style="opacity:0.008" fill="#d5cec6" d="M 485.5,280.5 C 485.5,281.833 484.833,282.5 483.5,282.5C 483.833,281.5 484.5,280.833 485.5,280.5 Z"/></g>
<g><path style="opacity:0.039" fill="#feffcb" d="M 182.5,285.5 C 181.833,284.167 181.833,284.167 182.5,285.5 Z"/></g>
<g><path style="opacity:0.004" fill="#fff8f2" d="M 182.5,285.5 C 183.338,285.842 183.672,286.508 183.5,287.5C 182.662,287.158 182.328,286.492 182.5,285.5 Z"/></g>
<g><path style="opacity:0.059" fill="#edddcb" d="M 183.5,287.5 C 184.833,288.167 184.833,288.167 183.5,287.5 Z"/></g>
<g><path style="opacity:0.016" fill="#fefffe" d="M 186.5,291.5 C 185.833,290.167 185.833,290.167 186.5,291.5 Z"/></g>
<g><path style="opacity:0.043" fill="#fefffe" d="M 186.5,291.5 C 187.833,292.167 187.833,292.167 186.5,291.5 Z"/></g>
<g><path style="opacity:0.008" fill="#fefffe" d="M 188.5,294.5 C 187.833,293.167 187.833,293.167 188.5,294.5 Z"/></g>
<g><path style="opacity:0.043" fill="#fefffe" d="M 188.5,294.5 C 189.167,294.5 189.5,294.833 189.5,295.5C 189.167,295.167 188.833,294.833 188.5,294.5 Z"/></g>
<g><path style="opacity:0.059" fill="#feeedc" d="M 189.5,295.5 C 190.167,295.5 190.5,295.833 190.5,296.5C 190.167,296.167 189.833,295.833 189.5,295.5 Z"/></g>
<g><path style="opacity:0.016" fill="#fffaf5" d="M 190.5,296.5 C 191.338,296.842 191.672,297.508 191.5,298.5C 190.662,298.158 190.328,297.492 190.5,296.5 Z"/></g>
<g><path style="opacity:0.071" fill="#fefff0" d="M 191.5,298.5 C 192.167,298.5 192.5,298.833 192.5,299.5C 192.167,299.167 191.833,298.833 191.5,298.5 Z"/></g>
<g><path style="opacity:0.051" fill="#feebea" d="M 192.5,299.5 C 193.167,299.5 193.5,299.833 193.5,300.5C 193.167,300.167 192.833,299.833 192.5,299.5 Z"/></g>
<g><path style="opacity:0.024" fill="#fefffe" d="M 193.5,300.5 C 194.833,301.167 194.833,301.167 193.5,300.5 Z"/></g>
<g><path style="opacity:0.008" fill="#fefffe" d="M 196.5,304.5 C 195.833,303.167 195.833,303.167 196.5,304.5 Z"/></g>
<g><path style="opacity:0.012" fill="#fefffe" d="M 196.5,304.5 C 197.167,304.5 197.5,304.833 197.5,305.5C 197.167,305.167 196.833,304.833 196.5,304.5 Z"/></g>
<g><path style="opacity:0.059" fill="#feeedc" d="M 197.5,305.5 C 198.167,305.5 198.5,305.833 198.5,306.5C 198.167,306.167 197.833,305.833 197.5,305.5 Z"/></g>
<g><path style="opacity:0.024" fill="#d5d3cd" d="M 468.5,303.5 C 468.5,305.5 467.5,306.5 465.5,306.5C 466.167,305.167 467.167,304.167 468.5,303.5 Z"/></g>
<g><path style="opacity:0.078" fill="#f1f2f1" d="M 198.5,306.5 C 199.167,306.5 199.5,306.833 199.5,307.5C 199.167,307.167 198.833,306.833 198.5,306.5 Z"/></g>
<g><path style="opacity:0.039" fill="#fefffe" d="M 199.5,307.5 C 200.167,307.5 200.5,307.833 200.5,308.5C 200.167,308.167 199.833,307.833 199.5,307.5 Z"/></g>
<g><path style="opacity:0.016" fill="#fefffe" d="M 200.5,308.5 C 201.167,308.5 201.5,308.833 201.5,309.5C 201.167,309.167 200.833,308.833 200.5,308.5 Z"/></g>
<g><path style="opacity:0.078" fill="#f1f2f1" d="M 201.5,309.5 C 202.167,309.5 202.5,309.833 202.5,310.5C 202.167,310.167 201.833,309.833 201.5,309.5 Z"/></g>
<g><path style="opacity:0.004" fill="#fbf5ed" d="M 202.5,310.5 C 204.5,311.833 206.167,313.5 207.5,315.5C 204.833,314.833 203.167,313.167 202.5,310.5 Z"/></g>
<g><path style="opacity:0.981" fill="#554d46" d="M 461.5,311.5 C 459.5,314.167 457.167,316.5 454.5,318.5C 454.67,317.178 454.337,316.011 453.5,315C 455.116,314.385 456.449,313.385 457.5,312C 458.793,311.51 460.127,311.343 461.5,311.5 Z"/></g>
<g><path style="opacity:0.047" fill="#fefffe" d="M 207.5,315.5 C 208.167,315.5 208.5,315.833 208.5,316.5C 208.167,316.167 207.833,315.833 207.5,315.5 Z"/></g>
<g><path style="opacity:0.102" fill="#f4ebea" d="M 208.5,316.5 C 209.167,316.5 209.5,316.833 209.5,317.5C 209.167,317.167 208.833,316.833 208.5,316.5 Z"/></g>
<g><path style="opacity:0.086" fill="#f2f3db" d="M 209.5,317.5 C 210.167,317.5 210.5,317.833 210.5,318.5C 210.167,318.167 209.833,317.833 209.5,317.5 Z"/></g>
<g><path style="opacity:0.078" fill="#f1f2f1" d="M 210.5,318.5 C 211.167,318.5 211.5,318.833 211.5,319.5C 211.167,319.167 210.833,318.833 210.5,318.5 Z"/></g>
<g><path style="opacity:0.086" fill="#f2f3db" d="M 211.5,319.5 C 212.167,319.5 212.5,319.833 212.5,320.5C 212.167,320.167 211.833,319.833 211.5,319.5 Z"/></g>
<g><path style="opacity:0.051" fill="#feebea" d="M 212.5,320.5 C 213.167,320.5 213.5,320.833 213.5,321.5C 213.167,321.167 212.833,320.833 212.5,320.5 Z"/></g>
<g><path style="opacity:0.004" fill="#fefffe" d="M 213.5,321.5 C 214.167,321.5 214.5,321.833 214.5,322.5C 214.167,322.167 213.833,321.833 213.5,321.5 Z"/></g>
<g><path style="opacity:0.004" fill="#c8c3be" d="M 451.5,320.5 C 451.5,321.833 450.833,322.5 449.5,322.5C 449.833,321.5 450.5,320.833 451.5,320.5 Z"/></g>
<g><path style="opacity:0.004" fill="#fefffe" d="M 214.5,322.5 C 215.167,322.5 215.5,322.833 215.5,323.5C 215.167,323.167 214.833,322.833 214.5,322.5 Z"/></g>
<g><path style="opacity:0.008" fill="#fefffe" d="M 215.5,323.5 C 216.833,324.167 216.833,324.167 215.5,323.5 Z"/></g>
<g><path style="opacity:0.012" fill="#e4dfd9" d="M 449.5,322.5 C 449.5,323.833 448.833,324.5 447.5,324.5C 447.833,323.5 448.5,322.833 449.5,322.5 Z"/></g>
<g><path style="opacity:0.055" fill="#fefffe" d="M 218.5,325.5 C 217.833,324.167 217.833,324.167 218.5,325.5 Z"/></g>
<g><path style="opacity:0.071" fill="#fefff0" d="M 218.5,325.5 C 219.167,325.5 219.5,325.833 219.5,326.5C 219.167,326.167 218.833,325.833 218.5,325.5 Z"/></g>
<g><path style="opacity:0.075" fill="#fee4e3" d="M 219.5,326.5 C 220.167,326.5 220.5,326.833 220.5,327.5C 220.167,327.167 219.833,326.833 219.5,326.5 Z"/></g>
<g><path style="opacity:0.118" fill="#fff3e8" d="M 220.5,327.5 C 221.492,327.328 222.158,327.662 222.5,328.5C 221.508,328.672 220.842,328.338 220.5,327.5 Z"/></g>
<g><path style="opacity:0.02" fill="#dbd7ce" d="M 444.5,326.5 C 444.5,327.833 443.833,328.5 442.5,328.5C 442.833,327.5 443.5,326.833 444.5,326.5 Z"/></g>
<g><path style="opacity:0.094" fill="#f3f4de" d="M 222.5,328.5 C 223.167,328.5 223.5,328.833 223.5,329.5C 223.167,329.167 222.833,328.833 222.5,328.5 Z"/></g>
<g><path style="opacity:0.051" fill="#eaebea" d="M 223.5,329.5 C 224.167,329.5 224.5,329.833 224.5,330.5C 224.167,330.167 223.833,329.833 223.5,329.5 Z"/></g>
<g><path style="opacity:0.02" fill="#fefffe" d="M 224.5,330.5 C 225.833,331.167 225.833,331.167 224.5,330.5 Z"/></g>
<g><path style="opacity:0.082" fill="#fefff2" d="M 227.5,332.5 C 226.833,331.167 226.833,331.167 227.5,332.5 Z"/></g>
<g><path style="opacity:0.047" fill="#fefffe" d="M 227.5,332.5 C 228.167,332.5 228.5,332.833 228.5,333.5C 228.167,333.167 227.833,332.833 227.5,332.5 Z"/></g>
<g><path style="opacity:0.031" fill="#fedfde" d="M 228.5,333.5 C 229.167,333.5 229.5,333.833 229.5,334.5C 229.167,334.167 228.833,333.833 228.5,333.5 Z"/></g>
<g><path style="opacity:0.039" fill="#fffedd" d="M 229.5,334.5 C 230.239,334.369 230.906,334.536 231.5,335C 230.563,335.692 229.897,335.525 229.5,334.5 Z"/></g>
<g><path style="opacity:0.031" fill="#e3dfce" d="M 436.5,333.5 C 435.713,335.104 434.38,335.771 432.5,335.5C 433.514,334.326 434.847,333.66 436.5,333.5 Z"/></g>
<g><path style="opacity:0.102" fill="#f4ebea" d="M 233.5,336.5 C 232.833,335.167 232.833,335.167 233.5,336.5 Z"/></g>
<g><path style="opacity:0.067" fill="#efe1d1" d="M 233.5,336.5 C 234.167,336.5 234.5,336.833 234.5,337.5C 234.167,337.167 233.833,336.833 233.5,336.5 Z"/></g>
<g><path style="opacity:0.008" fill="#fefffe" d="M 234.5,337.5 C 235.833,338.167 235.833,338.167 234.5,337.5 Z"/></g>
<g><path style="opacity:0.908" fill="#625c55" d="M 429.5,337.5 C 428.655,339.762 427.322,340.429 425.5,339.5C 426.183,337.824 427.517,337.157 429.5,337.5 Z"/></g>
<g><path style="opacity:0.059" fill="#edeedc" d="M 237.5,339.5 C 236.833,338.167 236.833,338.167 237.5,339.5 Z"/></g>
<g><path style="opacity:0.133" fill="#f5eae0" d="M 237.5,339.5 C 238.492,339.328 239.158,339.662 239.5,340.5C 238.508,340.672 237.842,340.338 237.5,339.5 Z"/></g>
<g><path style="opacity:0.047" fill="#fefffe" d="M 239.5,340.5 C 240.833,341.167 240.833,341.167 239.5,340.5 Z"/></g>
<g><path style="opacity:0.016" fill="#fefffe" d="M 241.5,341.5 C 242.833,342.167 242.833,342.167 241.5,341.5 Z"/></g>
<g><path style="opacity:0.082" fill="#fefff2" d="M 244.5,343.5 C 243.833,342.167 243.833,342.167 244.5,343.5 Z"/></g>
<g><path style="opacity:0.012" fill="#fefffe" d="M 244.5,343.5 C 245.833,344.167 245.833,344.167 244.5,343.5 Z"/></g>
<g><path style="opacity:0.031" fill="#feffde" d="M 246.5,344.5 C 247.833,345.167 247.833,345.167 246.5,344.5 Z"/></g>
<g><path style="opacity:0.188" fill="#f8f1eb" d="M 251.5,347.5 C 250.244,347.539 249.244,347.039 248.5,346C 249.998,345.415 250.998,345.915 251.5,347.5 Z"/></g>
<g><path style="opacity:0.051" fill="#fff1f1" d="M 251.5,347.5 C 252.239,347.369 252.906,347.536 253.5,348C 252.563,348.692 251.897,348.525 251.5,347.5 Z"/></g>
<g><path style="opacity:0.063" fill="#eadacf" d="M 414.5,346.5 C 413.713,348.104 412.38,348.771 410.5,348.5C 411.514,347.326 412.847,346.66 414.5,346.5 Z"/></g>
<g><path style="opacity:0.004" fill="#fefffe" d="M 254.5,348.5 C 255.833,349.167 255.833,349.167 254.5,348.5 Z"/></g>
<g><path style="opacity:0.008" fill="#fefffe" d="M 256.5,349.5 C 257.833,350.167 257.833,350.167 256.5,349.5 Z"/></g>
<g><path style="opacity:0.012" fill="#fefffe" d="M 258.5,350.5 C 259.833,351.167 259.833,351.167 258.5,350.5 Z"/></g>
<g><path style="opacity:0.098" fill="#ffeae3" d="M 260.5,352.5 C 260.897,351.475 261.563,351.308 262.5,352C 261.906,352.464 261.239,352.631 260.5,352.5 Z"/></g>
<g><path style="opacity:0.035" fill="#fefffe" d="M 263.5,352.5 C 264.833,353.167 264.833,353.167 263.5,352.5 Z"/></g>
<g><path style="opacity:0.102" fill="#f8f1f1" d="M 267.5,354.5 C 266.761,354.631 266.094,354.464 265.5,354C 266.437,353.308 267.103,353.475 267.5,354.5 Z"/></g>
<g><path style="opacity:0.004" fill="#fefffe" d="M 267.5,354.5 C 268.833,355.167 268.833,355.167 267.5,354.5 Z"/></g>
<g><path style="opacity:0.025" fill="#efeae5" d="M 398.5,353.5 C 397.779,355.382 396.779,355.715 395.5,354.5C 396.391,353.89 397.391,353.557 398.5,353.5 Z"/></g>
<g><path style="opacity:0.035" fill="#fefffe" d="M 274.5,356.5 C 275.833,357.167 275.833,357.167 274.5,356.5 Z"/></g>
<g><path style="opacity:0.01" fill="#fffaf6" d="M 276.5,356.5 C 277.289,356.783 277.956,357.283 278.5,358C 277.184,358.528 276.517,358.028 276.5,356.5 Z"/></g>
<g><path style="opacity:0.024" fill="#dfd9d0" d="M 390.5,356.5 C 389.295,358.138 387.962,358.471 386.5,357.5C 387.708,356.766 389.041,356.433 390.5,356.5 Z"/></g>
<g><path style="opacity:0.031" fill="#fefffe" d="M 279.5,359.5 C 279.897,358.475 280.563,358.308 281.5,359C 280.906,359.464 280.239,359.631 279.5,359.5 Z"/></g>
<g><path style="opacity:0.118" fill="#d1c3ba" d="M 384.5,358.5 C 383.359,359.339 382.026,360.006 380.5,360.5C 379.893,360.376 379.56,360.043 379.5,359.5C 381.042,358.699 382.708,358.366 384.5,358.5 Z"/></g>
<g><path style="opacity:0.082" fill="#fffef7" d="M 283.5,360.5 C 283.897,359.475 284.563,359.308 285.5,360C 284.906,360.464 284.239,360.631 283.5,360.5 Z"/></g>
<g><path style="opacity:0.033" fill="#fefffe" d="M 286.5,361.5 C 286.897,360.475 287.563,360.308 288.5,361C 287.906,361.464 287.239,361.631 286.5,361.5 Z"/></g>
<g><path style="opacity:0.086" fill="#fefff2" d="M 296.5,361.5 C 297.833,362.167 297.833,362.167 296.5,361.5 Z"/></g>
<g><path style="opacity:0.039" fill="#fefffe" d="M 301.5,363.5 C 302.833,364.167 302.833,364.167 301.5,363.5 Z"/></g>
<g><path style="opacity:0.094" fill="#f5eadb" d="M 306.5,363.5 C 308.983,363.73 309.483,364.397 308,365.5C 306.97,365.164 306.47,364.497 306.5,363.5 Z"/></g>
<g><path style="opacity:0.627" fill="#f7ece2" d="M 313.5,364.5 C 315.167,364.5 316.833,364.5 318.5,364.5C 319.562,365.575 319.562,366.575 318.5,367.5C 315.891,366.77 313.224,366.27 310.5,366C 311.527,365.487 312.527,364.987 313.5,364.5 Z"/></g>
</svg>
